#tb 0: 1/44100
#media_type 0: audio
#codec_id 0: pcm_s16le
#sample_rate 0: 44100
#channel_layout_name 0: mono
0,          0,          0,     1152,     2304, 0xc521bacd
0,      26496,      26496,     1152,     2304, 0x9a807525
0,      52992,      52992,     1152,     2304, 0x86ae6a04
0,      79488,      79488,     1152,     2304, 0xf508877c
0,     105984,     105984,     1152,     2304, 0x29506d7c
0,     132480,     132480,     1152,     2304, 0x24078edb
0,     158976,     158976,     1152,     2304, 0x4f6984d2
0,     185472,     185472,     1152,     2304, 0x24186e95
0,     211968,     211968,     1152,     2304, 0xd1927b28
0,     238464,     238464,     1152,     2304, 0xc77283d5
0,     264960,     264960,     1152,     2304, 0xc0b773f8
0,     291456,     291456,     1152,     2304, 0x0e1b8524
0,     317952,     317952,     1152,     2304, 0x8b0061dc
0,     344448,     344448,     1152,     2304, 0x37c77ad6
0,     370944,     370944,     1152,     2304, 0x5eae7410
0,     397440,     397440,     1152,     2304, 0x72d97ab5
0,     423936,     423936,     1152,     2304, 0x1afd8745
0,     450432,     450432,     1152,     2304, 0xe30b7c9b
0,     476928,     476928,     1152,     2304, 0xe86480b3
0,     503424,     503424,     1152,     2304, 0xb9c77a4e
0,     529920,     529920,     1152,     2304, 0x64508f2a
0,     556416,     556416,     1152,     2304, 0x836c74ed
0,     582912,     582912,     1152,     2304, 0x12147a5d
0,     609408,     609408,     1152,     2304, 0x33b07d3b
0,     635904,     635904,     1152,     2304, 0x65e67731
0,     662400,     662400,     1152,     2304, 0x8d1c8191
0,     688896,     688896,     1152,     2304, 0xad7b7701
0,     715392,     715392,     1152,     2304, 0x499c7f6c
0,     741888,     741888,     1152,     2304, 0x5df97989
0,     768384,     768384,     1152,     2304, 0x0db17ad9
0,     794880,     794880,     1152,     2304, 0x0d3281d7
0,     821376,     821376,     1152,     2304, 0x255f704f
0,     847872,     847872,     1152,     2304, 0xdf7c73d0
0,     874368,     874368,     1152,     2304, 0x93dd737c
0,     900864,     900864,     1152,     2304, 0x48ed5740
0,     927360,     927360,     1152,     2304, 0x6d7b7eaf
0,     953856,     953856,     1152,     2304, 0xe72373a1
0,     980352,     980352,     1152,     2304, 0x7d3e7e2e
0,    1006848,    1006848,     1152,     2304, 0x0d167743
0,    1033344,    1033344,     1152,     2304, 0xc2d97f6c
0,    1059840,    1059840,     1152,     2304, 0xc66175a0
0,    1086336,    1086336,     1152,     2304, 0xd02a7475
0,    1112832,    1112832,     1152,     2304, 0xdbf57801
0,    1139328,    1139328,     1152,     2304, 0x52b47a8e
0,    1165824,    1165824,     1152,     2304, 0xc93d80c5
0,    1192320,    1192320,     1152,     2304, 0x071e76cf
0,    1218816,    1218816,     1152,     2304, 0x2aa07ee2
0,    1245312,    1245312,     1152,     2304, 0x04059074
0,    1271808,    1271808,     1152,     2304, 0x228f6def
0,    1298304,    1298304,     1152,     2304, 0x927893a8
0,    1324800,    1324800,     1152,     2304, 0x583687df
0,    1351296,    1351296,     1152,     2304, 0x0d3f653c
0,    1377792,    1377792,     1152,     2304, 0xc0e775f3
0,    1404288,    1404288,     1152,     2304, 0x41d98473
0,    1430784,    1430784,     1152,     2304, 0x68fb775a
0,    1457280,    1457280,     1152,     2304, 0x81e0810e
0,    1483776,    1483776,     1152,     2304, 0xf35790d3
0,    1510272,    1510272,     1152,     2304, 0xc1468c45
0,    1536768,    1536768,     1152,     2304, 0x6949796a
0,    1563264,    1563264,     1152,     2304, 0xa0bb7dcd
0,    1589760,    1589760,     1152,     2304, 0x50af8424
0,    1616256,    1616256,     1152,     2304, 0x449b7d37
0,    1642752,    1642752,     1152,     2304, 0xcf3379a8
0,    1669248,    1669248,     1152,     2304, 0x069d894e
0,    1695744,    1695744,     1152,     2304, 0x41bd7334
0,    1722240,    1722240,     1152,     2304, 0x0de78c05
0,    1748736,    1748736,     1152,     2304, 0x2d127b9d
0,    1775232,    1775232,     1152,     2304, 0x422875b5
0,    1801728,    1801728,     1152,     2304, 0xd5297389
0,    1828224,    1828224,     1152,     2304, 0x49e38668
0,    1854720,    1854720,     1152,     2304, 0x2a9a810b
0,    1881216,    1881216,     1152,     2304, 0x5a657b43
0,    1907712,    1907712,     1152,     2304, 0x32307c12
0,    1934208,    1934208,     1152,     2304, 0x75c87bba
0,    1960704,    1960704,     1152,     2304, 0x5b1c823b
0,    1987200,    1987200,     1152,     2304, 0xeeb872ef
0,    2013696,    2013696,     1152,     2304, 0x6ecc869d
0,    2040192,    2040192,     1152,     2304, 0x4b3e764f
0,    2066688,    2066688,     1152,     2304, 0x30986fdb
0,    2093184,    2093184,     1152,     2304, 0x958374ff
0,    2119680,    2119680,     1152,     2304, 0x411b71cc
0,    2146176,    2146176,     1152,     2304, 0x7fed6759
0,    2172672,    2172672,     1152,     2304, 0x05a56793
0,    2199168,    2199168,     1152,     2304, 0x48f18827
0,    2225664,    2225664,     1152,     2304, 0xb40d7866
0,    2252160,    2252160,     1152,     2304, 0xcad18c4a
0,    2278656,    2278656,     1152,     2304, 0x9ad68582
0,    2305152,    2305152,     1152,     2304, 0x3ad17fce
0,    2331648,    2331648,     1152,     2304, 0x824b7af6
0,    2358144,    2358144,     1152,     2304, 0xcc9d894f
0,    2384640,    2384640,     1152,     2304, 0x46347a70
0,    2411136,    2411136,     1152,     2304, 0x2453872a
0,    2437632,    2437632,     1152,     2304, 0x58cb72a5
0,    2464128,    2464128,     1152,     2304, 0x01957747
0,    2490624,    2490624,     1152,     2304, 0x6df172cb
0,    2517120,    2517120,     1152,     2304, 0xdb367cbc
0,    2543616,    2543616,     1152,     2304, 0xc9c56fdb
0,    2570112,    2570112,     1152,     2304, 0xcd1f8433
0,    2596608,    2596608,     1152,     2304, 0x1c6e70f2
0,    2623104,    2623104,     1152,     2304, 0x530184d7
0,    2649600,    2649600,     1152,     2304, 0xda878aa9
0,    2676096,    2676096,     1152,     2304, 0xe7fa7b90
0,    2702592,    2702592,     1152,     2304, 0xa8a68176
0,    2729088,    2729088,     1152,     2304, 0xe4eb78a9
0,    2755584,    2755584,     1152,     2304, 0x9ea27c30
0,    2782080,    2782080,     1152,     2304, 0x1bd98591
0,    2808576,    2808576,     1152,     2304, 0x31af7ada
0,    2835072,    2835072,     1152,     2304, 0xeac277e4
0,    2861568,    2861568,     1152,     2304, 0xf51a7ea1
0,    2888064,    2888064,     1152,     2304, 0xc8c076e7
0,    2914560,    2914560,     1152,     2304, 0xa52a8768
0,    2941056,    2941056,     1152,     2304, 0x2abf846a
0,    2967552,    2967552,     1152,     2304, 0x1d428641
0,    2994048,    2994048,     1152,     2304, 0x049683c5
0,    3020544,    3020544,     1152,     2304, 0x5c13719b
0,    3047040,    3047040,     1152,     2304, 0x0ace777c
0,    3073536,    3073536,     1152,     2304, 0xc7a87f7f
0,    3100032,    3100032,     1152,     2304, 0xd358724b
0,    3126528,    3126528,     1152,     2304, 0x4ac67e9e
0,    3153024,    3153024,     1152,     2304, 0xfb7373a0
0,    3179520,    3179520,     1152,     2304, 0x315f7e19
0,    3206016,    3206016,     1152,     2304, 0x6109767d
0,    3232512,    3232512,     1152,     2304, 0xe4c984e4
0,    3259008,    3259008,     1152,     2304, 0xc86171e2
0,    3285504,    3285504,     1152,     2304, 0xdf4c81be
0,    3312000,    3312000,     1152,     2304, 0x758485df
0,    3338496,    3338496,     1152,     2304, 0x6c8871bd
0,    3364992,    3364992,     1152,     2304, 0x6f4b76a4
0,    3391488,    3391488,     1152,     2304, 0xe5cb7b71
0,    3417984,    3417984,     1152,     2304, 0xdd508866
0,    3444480,    3444480,     1152,     2304, 0xa01578a5
0,    3470976,    3470976,     1152,     2304, 0x733b7873
0,    3497472,    3497472,     1152,     2304, 0x4429605d
0,    3523968,    3523968,     1152,     2304, 0x9ef67d28
0,    3550464,    3550464,     1152,     2304, 0xe23983bf
0,    3576960,    3576960,     1152,     2304, 0xf04a818c
0,    3603456,    3603456,     1152,     2304, 0x1e3d896c
0,    3629952,    3629952,     1152,     2304, 0xf47e7180
0,    3656448,    3656448,     1152,     2304, 0xe3cf81aa
0,    3682944,    3682944,     1152,     2304, 0x656681cb
0,    3709440,    3709440,     1152,     2304, 0x7e6d87fc
0,    3735936,    3735936,     1152,     2304, 0xa7b45eeb
0,    3762432,    3762432,     1152,     2304, 0xea698906
0,    3788928,    3788928,     1152,     2304, 0x33ad6c13
0,    3815424,    3815424,     1152,     2304, 0x7fb78372
0,    3841920,    3841920,     1152,     2304, 0x448c7377
0,    3868416,    3868416,     1152,     2304, 0xb4cf70b3
0,    3894912,    3894912,     1152,     2304, 0xd44c84d1
0,    3921408,    3921408,     1152,     2304, 0x53d577ac
0,    3947904,    3947904,     1152,     2304, 0xd8237dc7
0,    3974400,    3974400,     1152,     2304, 0x4a827c5c
0,    4000896,    4000896,     1152,     2304, 0x349b7026
0,    4027392,    4027392,     1152,     2304, 0x3f1a6e81
0,    4053888,    4053888,     1152,     2304, 0x3f867098
0,    4080384,    4080384,     1152,     2304, 0x1d857987
0,    4106880,    4106880,     1152,     2304, 0xf8f17c16
0,    4133376,    4133376,     1152,     2304, 0x258c82c4
0,    4159872,    4159872,     1152,     2304, 0x2a9f90bb
0,    4186368,    4186368,     1152,     2304, 0x99d068db
0,    4212864,    4212864,     1152,     2304, 0x9a6276da
0,    4239360,    4239360,     1152,     2304, 0x97987172
0,    4265856,    4265856,     1152,     2304, 0x32097ace
0,    4292352,    4292352,     1152,     2304, 0x1b538baa
0,    4318848,    4318848,     1152,     2304, 0xeafc8b72
0,    4345344,    4345344,     1152,     2304, 0x36429152
0,    4371840,    4371840,     1152,     2304, 0x56ee7bac
0,    4398336,    4398336,     1152,     2304, 0xd74c7c72
0,    4424832,    4424832,     1152,     2304, 0xc5038776
0,    4451328,    4451328,     1152,     2304, 0xdcb17735
0,    4477824,    4477824,     1152,     2304, 0x083a6d78
0,    4504320,    4504320,     1152,     2304, 0x5ce56bad
0,    4530816,    4530816,     1152,     2304, 0x30818180
0,    4557312,    4557312,     1152,     2304, 0x3a256b87
0,    4583808,    4583808,     1152,     2304, 0xf03279d1
0,    4610304,    4610304,     1152,     2304, 0x2bb485d4
0,    4636800,    4636800,     1152,     2304, 0x6c367caa
0,    4663296,    4663296,     1152,     2304, 0x64336d6e
0,    4689792,    4689792,     1152,     2304, 0xfc437e51
0,    4716288,    4716288,     1152,     2304, 0x274e7bd7
0,    4742784,    4742784,     1152,     2304, 0xa2d475b0
0,    4769280,    4769280,     1152,     2304, 0xd11573fc
0,    4795776,    4795776,     1152,     2304, 0x71a679e9
0,    4822272,    4822272,     1152,     2304, 0xff29710d
0,    4848768,    4848768,     1152,     2304, 0xa4ee8333
0,    4875264,    4875264,     1152,     2304, 0x92ec6b77
0,    4901760,    4901760,     1152,     2304, 0x7ddd7ad6
0,    4928256,    4928256,     1152,     2304, 0x1258786d
0,    4954752,    4954752,     1152,     2304, 0xf4047a8a
0,    4981248,    4981248,     1152,     2304, 0x7bdb73f0
0,    5007744,    5007744,     1152,     2304, 0xfd917a3c
0,    5034240,    5034240,     1152,     2304, 0x09697f3e
0,    5060736,    5060736,     1152,     2304, 0x222a75b1
0,    5087232,    5087232,     1152,     2304, 0x25027394
0,    5113728,    5113728,     1152,     2304, 0x7bba7ec0
0,    5140224,    5140224,     1152,     2304, 0x18127bba
0,    5166720,    5166720,     1152,     2304, 0x9df273ba
0,    5193216,    5193216,     1152,     2304, 0xc2668329
0,    5219712,    5219712,     1152,     2304, 0x99776ef7
0,    5246208,    5246208,     1152,     2304, 0x2e8d7bb5
0,    5272704,    5272704,     1152,     2304, 0xb0918677
0,    5299200,    5299200,     1152,     2304, 0x67647304
0,    5325696,    5325696,     1152,     2304, 0xd3857b1f
0,    5352192,    5352192,     1152,     2304, 0xd8c38306
0,    5378688,    5378688,     1152,     2304, 0xb7dc78b0
0,    5405184,    5405184,     1152,     2304, 0xb3237e88
0,    5431680,    5431680,     1152,     2304, 0xe4067235
0,    5458176,    5458176,     1152,     2304, 0xc2486e08
0,    5484672,    5484672,     1152,     2304, 0xb60d7c8b
0,    5511168,    5511168,     1152,     2304, 0x4768674d
0,    5537664,    5537664,     1152,     2304, 0xa9d2790b
0,    5564160,    5564160,     1152,     2304, 0x816c802e
0,    5590656,    5590656,     1152,     2304, 0xc266754a
0,    5617152,    5617152,     1152,     2304, 0xd6b87474
0,    5643648,    5643648,     1152,     2304, 0x6be784aa
0,    5670144,    5670144,     1152,     2304, 0x4789706b
0,    5696640,    5696640,     1152,     2304, 0x15e988b2
0,    5723136,    5723136,     1152,     2304, 0xf307955f
0,    5749632,    5749632,     1152,     2304, 0xcb9f6a56
0,    5776128,    5776128,     1152,     2304, 0x32648305
0,    5802624,    5802624,     1152,     2304, 0xa98c8301
0,    5829120,    5829120,     1152,     2304, 0x7fa76fe0
0,    5855616,    5855616,     1152,     2304, 0xbf71782b
0,    5882112,    5882112,     1152,     2304, 0x432a6f21
0,    5908608,    5908608,     1152,     2304, 0x2f6f7da4
0,    5935104,    5935104,     1152,     2304, 0x4aa481fe
0,    5961600,    5961600,     1152,     2304, 0xb99273bf
0,    5988096,    5988096,     1152,     2304, 0x682f7e8d
0,    6014592,    6014592,     1152,     2304, 0x36b188af
0,    6041088,    6041088,     1152,     2304, 0xc2287c4b
0,    6067584,    6067584,     1152,     2304, 0x55b99348
0,    6094080,    6094080,     1152,     2304, 0xc48d794f
0,    6120576,    6120576,     1152,     2304, 0x776a6d0b
0,    6147072,    6147072,     1152,     2304, 0x13c177dc
0,    6173568,    6173568,     1152,     2304, 0xe33492ba
0,    6200064,    6200064,     1152,     2304, 0x06a17a49
0,    6226560,    6226560,     1152,     2304, 0xeb64879e
0,    6253056,    6253056,     1152,     2304, 0xb88d7f82
0,    6279552,    6279552,     1152,     2304, 0x40af76b1
0,    6306048,    6306048,     1152,     2304, 0xfcf47084
0,    6332544,    6332544,     1152,     2304, 0x28a28b18
0,    6359040,    6359040,     1152,     2304, 0x83277094
0,    6385536,    6385536,     1152,     2304, 0x751a7e16
0,    6412032,    6412032,     1152,     2304, 0xe3b87d1c
0,    6438528,    6438528,     1152,     2304, 0x86237e44
0,    6465024,    6465024,     1152,     2304, 0xbaae7bcb
0,    6491520,    6491520,     1152,     2304, 0x998b7248
0,    6518016,    6518016,     1152,     2304, 0x76f06aca
0,    6544512,    6544512,     1152,     2304, 0x25167797
0,    6571008,    6571008,     1152,     2304, 0x0b708687
0,    6597504,    6597504,     1152,     2304, 0xcbbb86b3
0,    6624000,    6624000,     1152,     2304, 0xd9fa7e41
0,    6650496,    6650496,     1152,     2304, 0x4d9b7d73
0,    6676992,    6676992,     1152,     2304, 0x624c64da
0,    6703488,    6703488,     1152,     2304, 0x942d8931
0,    6729984,    6729984,     1152,     2304, 0x205a8195
0,    6756480,    6756480,     1152,     2304, 0xece27554
0,    6782976,    6782976,     1152,     2304, 0x77437983
0,    6809472,    6809472,     1152,     2304, 0xdd3b7eeb
0,    6835968,    6835968,     1152,     2304, 0xd16f6e1f
0,    6862464,    6862464,     1152,     2304, 0x99647f2c
0,    6888960,    6888960,     1152,     2304, 0xf6bf7ec4
0,    6915456,    6915456,     1152,     2304, 0x0d1c85a9
0,    6941952,    6941952,     1152,     2304, 0x5d03743f
0,    6968448,    6968448,     1152,     2304, 0xb03f7893
0,    6994944,    6994944,     1152,     2304, 0xeed87a4e
0,    7021440,    7021440,     1152,     2304, 0xe67677a8
0,    7047936,    7047936,     1152,     2304, 0x3d488788
0,    7074432,    7074432,     1152,     2304, 0x0f8a6f4d
0,    7100928,    7100928,     1152,     2304, 0x30fb7a6f
0,    7127424,    7127424,     1152,     2304, 0xecec724b
0,    7153920,    7153920,     1152,     2304, 0xb20983cb
0,    7180416,    7180416,     1152,     2304, 0x75c66bc9
0,    7206912,    7206912,     1152,     2304, 0x285a75d5
0,    7233408,    7233408,     1152,     2304, 0x2fb97991
0,    7259904,    7259904,     1152,     2304, 0x360d81d9
0,    7286400,    7286400,     1152,     2304, 0xf0e98684
0,    7312896,    7312896,     1152,     2304, 0x869379e7
0,    7339392,    7339392,     1152,     2304, 0x27b96a02
0,    7365888,    7365888,     1152,     2304, 0x259683d4
0,    7392384,    7392384,     1152,     2304, 0x39f2941e
0,    7418880,    7418880,     1152,     2304, 0xd8c579f1
0,    7445376,    7445376,     1152,     2304, 0xfe727de8
0,    7471872,    7471872,     1152,     2304, 0xf30778c6
0,    7498368,    7498368,     1152,     2304, 0x66b06aa9
0,    7524864,    7524864,     1152,     2304, 0xd437747b
0,    7551360,    7551360,     1152,     2304, 0x4135801c
0,    7577856,    7577856,     1152,     2304, 0x13118109
0,    7604352,    7604352,     1152,     2304, 0x7506892a
0,    7630848,    7630848,     1152,     2304, 0x8da98662
0,    7657344,    7657344,     1152,     2304, 0xad7b869c
0,    7683840,    7683840,     1152,     2304, 0x4b3d8993
0,    7710336,    7710336,     1152,     2304, 0xf102681f
0,    7736832,    7736832,     1152,     2304, 0x030d6f7a
0,    7763328,    7763328,     1152,     2304, 0x890b70c2
0,    7789824,    7789824,     1152,     2304, 0xebeb7bf3
0,    7816320,    7816320,     1152,     2304, 0x3492774f
0,    7842816,    7842816,     1152,     2304, 0xbae3786d
0,    7869312,    7869312,     1152,     2304, 0x3398826a
0,    7895808,    7895808,     1152,     2304, 0xdc7a78d8
0,    7922304,    7922304,     1152,     2304, 0xf073789b
0,    7948800,    7948800,     1152,     2304, 0x2cfd862f
0,    7975296,    7975296,     1152,     2304, 0x9bc38131
0,    8001792,    8001792,     1152,     2304, 0xfa7f8144
0,    8028288,    8028288,     1152,     2304, 0x753986d1
0,    8054784,    8054784,     1152,     2304, 0x7c517697
0,    8081280,    8081280,     1152,     2304, 0x620a6f3f
0,    8107776,    8107776,     1152,     2304, 0x739273a5
0,    8134272,    8134272,     1152,     2304, 0xe2846f4c
0,    8160768,    8160768,     1152,     2304, 0x74967cbd
0,    8187264,    8187264,     1152,     2304, 0x83408e32
0,    8213760,    8213760,     1152,     2304, 0x0c718531
0,    8240256,    8240256,     1152,     2304, 0x4cce7a84
0,    8266752,    8266752,     1152,     2304, 0xd6077648
0,    8293248,    8293248,     1152,     2304, 0xef948983
0,    8319744,    8319744,     1152,     2304, 0x259c81d0
0,    8346240,    8346240,     1152,     2304, 0xec997215
0,    8372736,    8372736,     1152,     2304, 0xf1a27145
0,    8399232,    8399232,     1152,     2304, 0x67cc7b3a
0,    8425728,    8425728,     1152,     2304, 0xd2e57692
0,    8452224,    8452224,     1152,     2304, 0x7a8261d6
0,    8478720,    8478720,     1152,     2304, 0x44208338
0,    8505216,    8505216,     1152,     2304, 0x9cb5810e
0,    8531712,    8531712,     1152,     2304, 0xbf687f51
0,    8558208,    8558208,     1152,     2304, 0x53fe815e
0,    8584704,    8584704,     1152,     2304, 0xdec67e10
0,    8611200,    8611200,     1152,     2304, 0x7a22867c
0,    8637696,    8637696,     1152,     2304, 0x5e8779eb
0,    8664192,    8664192,     1152,     2304, 0x60fe7b82
0,    8690688,    8690688,     1152,     2304, 0xe7a67fd4
0,    8717184,    8717184,     1152,     2304, 0xaea37a22
0,    8743680,    8743680,     1152,     2304, 0xf66d7075
0,    8770176,    8770176,     1152,     2304, 0xa80b8197
0,    8796672,    8796672,     1152,     2304, 0x92707b3d
0,    8823168,    8823168,     1152,     2304, 0x8e257929
0,    8849664,    8849664,     1152,     2304, 0x8145862d
0,    8876160,    8876160,     1152,     2304, 0xc124761a
0,    8902656,    8902656,     1152,     2304, 0xf1f99010
0,    8929152,    8929152,     1152,     2304, 0xcf2472d8
0,    8955648,    8955648,     1152,     2304, 0x0dee7a38
0,    8982144,    8982144,     1152,     2304, 0x6d30819c
0,    9008640,    9008640,     1152,     2304, 0x741b7fab
0,    9035136,    9035136,     1152,     2304, 0xb4f769f9
0,    9061632,    9061632,     1152,     2304, 0xbdc47eab
0,    9088128,    9088128,     1152,     2304, 0x92a77cf9
0,    9114624,    9114624,     1152,     2304, 0xb68b82b6
0,    9141120,    9141120,     1152,     2304, 0x8a378fad
0,    9167616,    9167616,     1152,     2304, 0x9ec377f3
0,    9194112,    9194112,     1152,     2304, 0xc7b97507
0,    9220608,    9220608,     1152,     2304, 0x817e77b2
0,    9247104,    9247104,     1152,     2304, 0x12548737
0,    9273600,    9273600,     1152,     2304, 0x2fdf755a
0,    9300096,    9300096,     1152,     2304, 0x5ba65cd2
0,    9326592,    9326592,     1152,     2304, 0x665a8d47
0,    9353088,    9353088,     1152,     2304, 0x56c98770
0,    9379584,    9379584,     1152,     2304, 0x14257def
0,    9406080,    9406080,     1152,     2304, 0x241b8437
0,    9432576,    9432576,     1152,     2304, 0x12327a41
0,    9459072,    9459072,     1152,     2304, 0xdbe06c4b
0,    9485568,    9485568,     1152,     2304, 0xc6c988ec
0,    9512064,    9512064,     1152,     2304, 0x6b53788e
0,    9538560,    9538560,     1152,     2304, 0xccb18fea
0,    9565056,    9565056,     1152,     2304, 0x83e47ebd
0,    9591552,    9591552,     1152,     2304, 0xc24b74f4
0,    9618048,    9618048,     1152,     2304, 0x0c676dcc
0,    9644544,    9644544,     1152,     2304, 0xa1d97c6a
0,    9671040,    9671040,     1152,     2304, 0x4abd7683
0,    9697536,    9697536,     1152,     2304, 0xc9217f16
0,    9724032,    9724032,     1152,     2304, 0x36c582fb
0,    9750528,    9750528,     1152,     2304, 0x48a78165
0,    9777024,    9777024,     1152,     2304, 0xe36e7f76
0,    9803520,    9803520,     1152,     2304, 0x4c7d7e8f
0,    9830016,    9830016,     1152,     2304, 0xb476763a
0,    9856512,    9856512,     1152,     2304, 0xef048145
0,    9883008,    9883008,     1152,     2304, 0x54116f12
0,    9909504,    9909504,     1152,     2304, 0xbde06b70
0,    9936000,    9936000,     1152,     2304, 0x2b6087d3
0,    9962496,    9962496,     1152,     2304, 0x10b37175
0,    9988992,    9988992,     1152,     2304, 0x480c8a8b
0,   10015488,   10015488,     1152,     2304, 0x6ff8718e
0,   10041984,   10041984,     1152,     2304, 0x66407937
0,   10068480,   10068480,     1152,     2304, 0x370d8e8e
0,   10094976,   10094976,     1152,     2304, 0x4d867d70
0,   10121472,   10121472,     1152,     2304, 0x3c9878ed
0,   10147968,   10147968,     1152,     2304, 0x9b877a51
0,   10174464,   10174464,     1152,     2304, 0xa1eb8204
0,   10200960,   10200960,     1152,     2304, 0x2b7373ca
0,   10227456,   10227456,     1152,     2304, 0x4a9c71a1
0,   10253952,   10253952,     1152,     2304, 0x3d5c76f6
0,   10280448,   10280448,     1152,     2304, 0x443e76cd
0,   10306944,   10306944,     1152,     2304, 0xc6ba882a
0,   10333440,   10333440,     1152,     2304, 0xaa6367ec
0,   10359936,   10359936,     1152,     2304, 0x3a277ea5
0,   10386432,   10386432,     1152,     2304, 0x2e6d8348
0,   10412928,   10412928,     1152,     2304, 0x04ee8782
0,   10439424,   10439424,     1152,     2304, 0x59b3639d
0,   10465920,   10465920,     1152,     2304, 0x721a7067
0,   10492416,   10492416,     1152,     2304, 0x3c9a7ce6
0,   10518912,   10518912,     1152,     2304, 0xdeb580ab
0,   10545408,   10545408,     1152,     2304, 0xc09c6ee3
0,   10571904,   10571904,     1152,     2304, 0x6b29884f
0,   10598400,   10598400,     1152,     2304, 0x291b82b5
0,   10624896,   10624896,     1152,     2304, 0x4c567656
0,   10651392,   10651392,     1152,     2304, 0x75ed833a
0,   10677888,   10677888,     1152,     2304, 0xe1097b16
0,   10704384,   10704384,     1152,     2304, 0xe3288462
0,   10730880,   10730880,     1152,     2304, 0xcf097ae8
0,   10757376,   10757376,     1152,     2304, 0x403e796d
0,   10783872,   10783872,     1152,     2304, 0x26fd7fd0
0,   10810368,   10810368,     1152,     2304, 0x0e2a7554
0,   10836864,   10836864,     1152,     2304, 0xf82c8040
0,   10863360,   10863360,     1152,     2304, 0x3fc27784
0,   10889856,   10889856,     1152,     2304, 0xbe437d5e
0,   10916352,   10916352,     1152,     2304, 0xed7166bc
0,   10942848,   10942848,     1152,     2304, 0x79f16d63
0,   10969344,   10969344,     1152,     2304, 0x1aae793a
0,   10995840,   10995840,     1152,     2304, 0xd3237f7d
0,   11022336,   11022336,     1152,     2304, 0x91137992
0,   11048832,   11048832,     1152,     2304, 0xf8b57cb9
0,   11075328,   11075328,     1152,     2304, 0x0ccf8309
0,   11101824,   11101824,     1152,     2304, 0x391f7cb8
0,   11128320,   11128320,     1152,     2304, 0x0d1f85f9
0,   11154816,   11154816,     1152,     2304, 0xc43a7824
0,   11181312,   11181312,     1152,     2304, 0x2f0c7519
0,   11207808,   11207808,     1152,     2304, 0x13c5976e
0,   11234304,   11234304,     1152,     2304, 0xdbfb81b2
0,   11260800,   11260800,     1152,     2304, 0x15b771d3
0,   11287296,   11287296,     1152,     2304, 0xce5e8625
0,   11313792,   11313792,     1152,     2304, 0x318472f3
0,   11340288,   11340288,     1152,     2304, 0x462577a1
0,   11366784,   11366784,     1152,     2304, 0x024a854d
0,   11393280,   11393280,     1152,     2304, 0x49f28373
0,   11419776,   11419776,     1152,     2304, 0xfe3c6e23
0,   11446272,   11446272,     1152,     2304, 0x70ae84d0
0,   11472768,   11472768,     1152,     2304, 0x91a08980
0,   11499264,   11499264,     1152,     2304, 0x25c498c5
0,   11525760,   11525760,     1152,     2304, 0x52807c02
0,   11552256,   11552256,     1152,     2304, 0x012a89f6
0,   11578752,   11578752,     1152,     2304, 0xb8d687bf
0,   11605248,   11605248,     1152,     2304, 0x72ee7843
0,   11631744,   11631744,     1152,     2304, 0x3e0d8939
0,   11658240,   11658240,     1152,     2304, 0x0dcb763c
0,   11684736,   11684736,     1152,     2304, 0xc3617408
0,   11711232,   11711232,     1152,     2304, 0x76a87e15
0,   11737728,   11737728,     1152,     2304, 0x1d437541
0,   11764224,   11764224,     1152,     2304, 0xf348748b
0,   11790720,   11790720,     1152,     2304, 0x949d70f4
0,   11817216,   11817216,     1152,     2304, 0x6283862d
0,   11843712,   11843712,     1152,     2304, 0x92a76794
0,   11870208,   11870208,     1152,     2304, 0x31d87f20
0,   11896704,   11896704,     1152,     2304, 0x13a47a09
0,   11923200,   11923200,     1152,     2304, 0xf8dc8b14
0,   11949696,   11949696,     1152,     2304, 0x4d787fea
0,   11976192,   11976192,     1152,     2304, 0x57f3861a
0,   12002688,   12002688,     1152,     2304, 0x83437cc7
0,   12029184,   12029184,     1152,     2304, 0x7cb56a94
0,   12055680,   12055680,     1152,     2304, 0xbfae8a60
0,   12082176,   12082176,     1152,     2304, 0x5e4b8cab
0,   12108672,   12108672,     1152,     2304, 0x6553794b
0,   12135168,   12135168,     1152,     2304, 0x9c9969ac
0,   12161664,   12161664,     1152,     2304, 0xde187582
0,   12188160,   12188160,     1152,     2304, 0xdda178b1
0,   12214656,   12214656,     1152,     2304, 0xec0b7e60
0,   12241152,   12241152,     1152,     2304, 0x060f7aa4
0,   12267648,   12267648,     1152,     2304, 0x2cca7841
0,   12294144,   12294144,     1152,     2304, 0xf9d26f2b
0,   12320640,   12320640,     1152,     2304, 0xf9ed84c7
0,   12347136,   12347136,     1152,     2304, 0x5ac67e15
0,   12373632,   12373632,     1152,     2304, 0x67147ce9
0,   12400128,   12400128,     1152,     2304, 0xa75993a7
0,   12426624,   12426624,     1152,     2304, 0xd1c16d5c
0,   12453120,   12453120,     1152,     2304, 0x491a8144
0,   12479616,   12479616,     1152,     2304, 0xa8918177
0,   12506112,   12506112,     1152,     2304, 0x90bc76b1
0,   12532608,   12532608,     1152,     2304, 0x9ed4723d
0,   12559104,   12559104,     1152,     2304, 0xa70f7a0c
0,   12585600,   12585600,     1152,     2304, 0x73757be2
0,   12612096,   12612096,     1152,     2304, 0x65e08594
0,   12638592,   12638592,     1152,     2304, 0xd47481d7
0,   12665088,   12665088,     1152,     2304, 0xfc7d8427
0,   12691584,   12691584,     1152,     2304, 0x73f599bd
0,   12718080,   12718080,     1152,     2304, 0x71df759b
0,   12744576,   12744576,     1152,     2304, 0x5466849e
0,   12771072,   12771072,     1152,     2304, 0x074b7f58
0,   12797568,   12797568,     1152,     2304, 0x42dd711b
0,   12824064,   12824064,     1152,     2304, 0x4d777422
0,   12850560,   12850560,     1152,     2304, 0xaa6c6e2b
0,   12877056,   12877056,     1152,     2304, 0x4a137597
0,   12903552,   12903552,     1152,     2304, 0x2a137511
0,   12930048,   12930048,     1152,     2304, 0xe03884c2
0,   12956544,   12956544,     1152,     2304, 0x563a6b8c
0,   12983040,   12983040,     1152,     2304, 0x5b847cfc
0,   13009536,   13009536,     1152,     2304, 0xdc918b29
0,   13036032,   13036032,     1152,     2304, 0xf5127466
0,   13062528,   13062528,     1152,     2304, 0x4a1174f4
0,   13089024,   13089024,     1152,     2304, 0xc807774d
0,   13115520,   13115520,     1152,     2304, 0x5fb580c0
0,   13142016,   13142016,     1152,     2304, 0x197c8d6f
0,   13168512,   13168512,     1152,     2304, 0x174f83ac
0,   13195008,   13195008,     1152,     2304, 0x94c08302
0,   13221504,   13221504,     1152,     2304, 0x71d478b2
0,   13248000,   13248000,     1152,     2304, 0x1f366dae
0,   13274496,   13274496,     1152,     2304, 0x8f487876
0,   13300992,   13300992,     1152,     2304, 0xcccf804c
0,   13327488,   13327488,     1152,     2304, 0xf43f7f97
0,   13353984,   13353984,     1152,     2304, 0x904d75cd
0,   13380480,   13380480,     1152,     2304, 0x6bee8374
0,   13406976,   13406976,     1152,     2304, 0xb640791f
0,   13433472,   13433472,     1152,     2304, 0xcea37501
0,   13459968,   13459968,     1152,     2304, 0x99a28bac
0,   13486464,   13486464,     1152,     2304, 0x65e372b7
0,   13512960,   13512960,     1152,     2304, 0xbcc762ff
0,   13539456,   13539456,     1152,     2304, 0xf94e8378
0,   13565952,   13565952,     1152,     2304, 0x184d7ad4
0,   13592448,   13592448,     1152,     2304, 0x89fd753f
0,   13618944,   13618944,     1152,     2304, 0x96588fc5
0,   13645440,   13645440,     1152,     2304, 0x8b9b76af
0,   13671936,   13671936,     1152,     2304, 0xcdb36e67
0,   13698432,   13698432,     1152,     2304, 0xe0647ff3
0,   13724928,   13724928,     1152,     2304, 0x4fee7d48
0,   13751424,   13751424,     1152,     2304, 0x9b6f8287
0,   13777920,   13777920,     1152,     2304, 0xc25a8063
0,   13804416,   13804416,     1152,     2304, 0x40f47dd7
0,   13830912,   13830912,     1152,     2304, 0xd426777f
0,   13857408,   13857408,     1152,     2304, 0x3f6075ac
0,   13883904,   13883904,     1152,     2304, 0x432786c6
0,   13910400,   13910400,     1152,     2304, 0x10f6650d
0,   13936896,   13936896,     1152,     2304, 0xd75c7b69
0,   13963392,   13963392,     1152,     2304, 0x43617fae
0,   13989888,   13989888,     1152,     2304, 0xa8bd7a9f
0,   14016384,   14016384,     1152,     2304, 0xc21b60a0
0,   14042880,   14042880,     1152,     2304, 0x15678fec
0,   14069376,   14069376,     1152,     2304, 0x29a97416
0,   14095872,   14095872,     1152,     2304, 0x12637d00
0,   14122368,   14122368,     1152,     2304, 0xa97b7141
0,   14148864,   14148864,     1152,     2304, 0x871b79bf
0,   14175360,   14175360,     1152,     2304, 0xa3e57dce
0,   14201856,   14201856,     1152,     2304, 0xf13578d1
0,   14228352,   14228352,     1152,     2304, 0x97c47166
0,   14254848,   14254848,     1152,     2304, 0x6e407c25
0,   14281344,   14281344,     1152,     2304, 0x82a07c9a
0,   14307840,   14307840,     1152,     2304, 0xf62381ef
0,   14334336,   14334336,     1152,     2304, 0x2ab86ca8
0,   14360832,   14360832,     1152,     2304, 0x97ca87ed
0,   14387328,   14387328,     1152,     2304, 0x6b4868f2
0,   14413824,   14413824,     1152,     2304, 0xdb72953c
0,   14440320,   14440320,     1152,     2304, 0x061c7770
0,   14466816,   14466816,     1152,     2304, 0xae067224
0,   14493312,   14493312,     1152,     2304, 0x88a282a3
0,   14519808,   14519808,     1152,     2304, 0x4e14743e
0,   14546304,   14546304,     1152,     2304, 0x3dbd8b7b
0,   14572800,   14572800,     1152,     2304, 0xcae57312
0,   14599296,   14599296,     1152,     2304, 0xf92b8ca7
0,   14625792,   14625792,     1152,     2304, 0x03ec6f07
0,   14652288,   14652288,     1152,     2304, 0x8c497359
0,   14678784,   14678784,     1152,     2304, 0x8ad3804c
0,   14705280,   14705280,     1152,     2304, 0xf30087c8
0,   14731776,   14731776,     1152,     2304, 0x20ce7cd1
0,   14758272,   14758272,     1152,     2304, 0xc66772bd
0,   14784768,   14784768,     1152,     2304, 0x05e6630b
0,   14811264,   14811264,     1152,     2304, 0x020688d9
0,   14837760,   14837760,     1152,     2304, 0xee3873cd
0,   14864256,   14864256,     1152,     2304, 0xf297782b
0,   14890752,   14890752,     1152,     2304, 0xf8877144
0,   14917248,   14917248,     1152,     2304, 0xce1e6f33
0,   14943744,   14943744,     1152,     2304, 0xf0457e4f
0,   14970240,   14970240,     1152,     2304, 0xdec787df
0,   14996736,   14996736,     1152,     2304, 0x5e006d1d
0,   15023232,   15023232,     1152,     2304, 0x949087ef
0,   15049728,   15049728,     1152,     2304, 0xdbb069c6
0,   15076224,   15076224,     1152,     2304, 0xd530806e
0,   15102720,   15102720,     1152,     2304, 0x80027b1d
0,   15129216,   15129216,     1152,     2304, 0xccb47c48
0,   15155712,   15155712,     1152,     2304, 0x4f2f8326
0,   15182208,   15182208,     1152,     2304, 0xfe046f23
0,   15208704,   15208704,     1152,     2304, 0x58cd759b
0,   15235200,   15235200,     1152,     2304, 0x83147073
0,   15261696,   15261696,     1152,     2304, 0xc9e77b95
0,   15288192,   15288192,     1152,     2304, 0x702d8e51
0,   15314688,   15314688,     1152,     2304, 0x5f498492
0,   15341184,   15341184,     1152,     2304, 0x10116d0e
0,   15367680,   15367680,     1152,     2304, 0xb8367894
0,   15394176,   15394176,     1152,     2304, 0x2b357892
0,   15420672,   15420672,     1152,     2304, 0x160e6c20
0,   15447168,   15447168,     1152,     2304, 0x0534874b
0,   15473664,   15473664,     1152,     2304, 0xde687064
0,   15500160,   15500160,     1152,     2304, 0x91b97fe4
0,   15526656,   15526656,     1152,     2304, 0x075a73ce
0,   15553152,   15553152,     1152,     2304, 0x1bf97777
0,   15579648,   15579648,     1152,     2304, 0xaada9096
0,   15606144,   15606144,     1152,     2304, 0xeac96f7e
0,   15632640,   15632640,     1152,     2304, 0xe9ca6e72
0,   15659136,   15659136,     1152,     2304, 0xd0868038
0,   15685632,   15685632,     1152,     2304, 0x686376f1
0,   15712128,   15712128,     1152,     2304, 0xdfb97684
0,   15738624,   15738624,     1152,     2304, 0x83c55d92
0,   15765120,   15765120,     1152,     2304, 0x772a7b70
0,   15791616,   15791616,     1152,     2304, 0x60a37941
0,   15818112,   15818112,     1152,     2304, 0xb00267bd
0,   15844608,   15844608,     1152,     2304, 0xd0a166eb
0,   15871104,   15871104,     1152,     2304, 0x88718162
0,   15897600,   15897600,     1152,     2304, 0xf9e084ff
0,   15924096,   15924096,     1152,     2304, 0x2ddc8c08
0,   15950592,   15950592,     1152,     2304, 0x843a7178
0,   15977088,   15977088,     1152,     2304, 0x1d9784b4
0,   16003584,   16003584,     1152,     2304, 0x98e27b1d
0,   16030080,   16030080,     1152,     2304, 0x583e846e
0,   16056576,   16056576,     1152,     2304, 0xa6d284ec
0,   16083072,   16083072,     1152,     2304, 0xa0147cbf
0,   16109568,   16109568,     1152,     2304, 0xb3bf7b4b
0,   16136064,   16136064,     1152,     2304, 0x7f8b78dd
0,   16162560,   16162560,     1152,     2304, 0xd3fb761f
0,   16189056,   16189056,     1152,     2304, 0x78147c2f
0,   16215552,   16215552,     1152,     2304, 0x5e747b26
0,   16242048,   16242048,     1152,     2304, 0x0d647d96
0,   16268544,   16268544,     1152,     2304, 0x73728362
0,   16295040,   16295040,     1152,     2304, 0x7c54707b
0,   16321536,   16321536,     1152,     2304, 0xb89c7806
0,   16348032,   16348032,     1152,     2304, 0x5f0f7a91
0,   16374528,   16374528,     1152,     2304, 0x35217e84
0,   16401024,   16401024,     1152,     2304, 0xb3798553
0,   16427520,   16427520,     1152,     2304, 0xd8377e8a
0,   16454016,   16454016,     1152,     2304, 0x339181ba
0,   16480512,   16480512,     1152,     2304, 0xbe196b2c
0,   16507008,   16507008,     1152,     2304, 0xdc708cc4
0,   16533504,   16533504,     1152,     2304, 0x649c74c1
0,   16560000,   16560000,     1152,     2304, 0xac128649
0,   16586496,   16586496,     1152,     2304, 0xcd506a22
0,   16612992,   16612992,     1152,     2304, 0xdfde7023
0,   16639488,   16639488,     1152,     2304, 0xf92d7450
0,   16665984,   16665984,     1152,     2304, 0x9ce379ac
0,   16692480,   16692480,     1152,     2304, 0xee5e712e
0,   16718976,   16718976,     1152,     2304, 0xa12e76c0
0,   16745472,   16745472,     1152,     2304, 0x4cee7be1
0,   16771968,   16771968,     1152,     2304, 0x90d481e5
0,   16798464,   16798464,     1152,     2304, 0xa6718158
0,   16824960,   16824960,     1152,     2304, 0xd248864a
0,   16851456,   16851456,     1152,     2304, 0x7ab972b4
0,   16877952,   16877952,     1152,     2304, 0x5c8a75cb
0,   16904448,   16904448,     1152,     2304, 0x07606722
0,   16930944,   16930944,     1152,     2304, 0xbf497aae
0,   16957440,   16957440,     1152,     2304, 0xffab7d66
0,   16983936,   16983936,     1152,     2304, 0xefaa7d05
0,   17010432,   17010432,     1152,     2304, 0x02d686dd
0,   17036928,   17036928,     1152,     2304, 0x852e6eb6
0,   17063424,   17063424,     1152,     2304, 0x3479706b
0,   17089920,   17089920,     1152,     2304, 0x04a37828
0,   17116416,   17116416,     1152,     2304, 0x5d5c833c
0,   17142912,   17142912,     1152,     2304, 0xf4277e06
0,   17169408,   17169408,     1152,     2304, 0xcece72ab
0,   17195904,   17195904,     1152,     2304, 0x10657aff
0,   17222400,   17222400,     1152,     2304, 0x0265762b
0,   17248896,   17248896,     1152,     2304, 0x0fc979de
0,   17275392,   17275392,     1152,     2304, 0xeecf7010
0,   17301888,   17301888,     1152,     2304, 0x319575cd
0,   17328384,   17328384,     1152,     2304, 0xccbc84a7
0,   17354880,   17354880,     1152,     2304, 0x823e6935
0,   17381376,   17381376,     1152,     2304, 0xa0606ade
0,   17407872,   17407872,     1152,     2304, 0x2c2d7866
0,   17434368,   17434368,     1152,     2304, 0x3a5a781e
0,   17460864,   17460864,     1152,     2304, 0xdaf677fd
0,   17487360,   17487360,     1152,     2304, 0x79d88aca
0,   17513856,   17513856,     1152,     2304, 0x3db27308
0,   17540352,   17540352,     1152,     2304, 0x627175ff
0,   17566848,   17566848,     1152,     2304, 0x40697b16
0,   17593344,   17593344,     1152,     2304, 0x40f47ee7
0,   17619840,   17619840,     1152,     2304, 0x6a8a7d91
0,   17646336,   17646336,     1152,     2304, 0x8d3e8a32
0,   17672832,   17672832,     1152,     2304, 0x576a817e
0,   17699328,   17699328,     1152,     2304, 0x86287f9b
0,   17725824,   17725824,     1152,     2304, 0x542b80cf
0,   17752320,   17752320,     1152,     2304, 0xae987ebe
0,   17778816,   17778816,     1152,     2304, 0x50357e5c
0,   17805312,   17805312,     1152,     2304, 0x283a7c8a
0,   17831808,   17831808,     1152,     2304, 0xf9ef8829
0,   17858304,   17858304,     1152,     2304, 0xb16c6fe9
0,   17884800,   17884800,     1152,     2304, 0xa69a7d34
0,   17911296,   17911296,     1152,     2304, 0xb47673e8
0,   17937792,   17937792,     1152,     2304, 0x64987c6d
0,   17964288,   17964288,     1152,     2304, 0xb730926a
0,   17990784,   17990784,     1152,     2304, 0x84fd6ceb
0,   18017280,   18017280,     1152,     2304, 0x76aa8992
0,   18043776,   18043776,     1152,     2304, 0x996f816b
0,   18070272,   18070272,     1152,     2304, 0x6b1470be
0,   18096768,   18096768,     1152,     2304, 0x38526cf2
0,   18123264,   18123264,     1152,     2304, 0xfc0081f4
0,   18149760,   18149760,     1152,     2304, 0xa5fd6fea
0,   18176256,   18176256,     1152,     2304, 0x6ceb7f58
0,   18202752,   18202752,     1152,     2304, 0x037c80e9
0,   18229248,   18229248,     1152,     2304, 0x2a246e9e
0,   18255744,   18255744,     1152,     2304, 0x63517e41
0,   18282240,   18282240,     1152,     2304, 0x271a79ad
0,   18308736,   18308736,     1152,     2304, 0x7d797c8a
0,   18335232,   18335232,     1152,     2304, 0x455281bb
0,   18361728,   18361728,     1152,     2304, 0x630a9cff
0,   18388224,   18388224,     1152,     2304, 0x80ef6f7d
0,   18414720,   18414720,     1152,     2304, 0x7ee57c97
0,   18441216,   18441216,     1152,     2304, 0x1cf59830
0,   18467712,   18467712,     1152,     2304, 0x75ad82d2
0,   18494208,   18494208,     1152,     2304, 0x2b926982
0,   18520704,   18520704,     1152,     2304, 0x05eb7dc3
0,   18547200,   18547200,     1152,     2304, 0x16947c3b
0,   18573696,   18573696,     1152,     2304, 0xd51e77df
0,   18600192,   18600192,     1152,     2304, 0x1b897c56
0,   18626688,   18626688,     1152,     2304, 0x89cb8221
0,   18653184,   18653184,     1152,     2304, 0x70d07b31
0,   18679680,   18679680,     1152,     2304, 0xca3772fa
0,   18706176,   18706176,     1152,     2304, 0xdc5a764f
0,   18732672,   18732672,     1152,     2304, 0x5ef09242
0,   18759168,   18759168,     1152,     2304, 0x2a627f75
0,   18785664,   18785664,     1152,     2304, 0x5bbd954b
0,   18812160,   18812160,     1152,     2304, 0x9b188222
0,   18838656,   18838656,     1152,     2304, 0xe0db8af7
0,   18865152,   18865152,     1152,     2304, 0x29b682dd
0,   18891648,   18891648,     1152,     2304, 0x4ed27986
0,   18918144,   18918144,     1152,     2304, 0xc1ca8236
0,   18944640,   18944640,     1152,     2304, 0xae4c8e92
0,   18971136,   18971136,     1152,     2304, 0x826970ea
0,   18997632,   18997632,     1152,     2304, 0xdbc8838a
0,   19024128,   19024128,     1152,     2304, 0x84fc72c8
0,   19050624,   19050624,     1152,     2304, 0xb27e806a
0,   19077120,   19077120,     1152,     2304, 0x7ae77e7a
0,   19103616,   19103616,     1152,     2304, 0xba507c9b
0,   19130112,   19130112,     1152,     2304, 0xeb457c43
0,   19156608,   19156608,     1152,     2304, 0x92a486a7
0,   19183104,   19183104,     1152,     2304, 0x8994747e
0,   19209600,   19209600,     1152,     2304, 0xcdb275bd
0,   19236096,   19236096,     1152,     2304, 0xdc9a7ebb
0,   19262592,   19262592,     1152,     2304, 0x0aa1709a
0,   19289088,   19289088,     1152,     2304, 0x13078109
0,   19315584,   19315584,     1152,     2304, 0x4a9d7327
0,   19342080,   19342080,     1152,     2304, 0x320c82d7
0,   19368576,   19368576,     1152,     2304, 0x8d127a8e
0,   19395072,   19395072,     1152,     2304, 0x8d527755
0,   19421568,   19421568,     1152,     2304, 0x3ab66d30
0,   19448064,   19448064,     1152,     2304, 0xf3ca7e5b
0,   19474560,   19474560,     1152,     2304, 0xeae770ec
0,   19501056,   19501056,     1152,     2304, 0xf6828e74
0,   19527552,   19527552,     1152,     2304, 0x3eaa7c66
0,   19554048,   19554048,     1152,     2304, 0xd50b6e67
0,   19580544,   19580544,     1152,     2304, 0xb1e68c9e
0,   19607040,   19607040,     1152,     2304, 0xb9cc7347
0,   19633536,   19633536,     1152,     2304, 0xabe486f8
0,   19660032,   19660032,     1152,     2304, 0x9c487fce
0,   19686528,   19686528,     1152,     2304, 0x02c1828f
0,   19713024,   19713024,     1152,     2304, 0x3b647078
0,   19739520,   19739520,     1152,     2304, 0x631c7621
0,   19766016,   19766016,     1152,     2304, 0xeeac8205
0,   19792512,   19792512,     1152,     2304, 0xe6e583da
0,   19819008,   19819008,     1152,     2304, 0xb7a27e46
0,   19845504,   19845504,     1152,     2304, 0xb0fa9636
0,   19872000,   19872000,     1152,     2304, 0x60dd7b7a
0,   19898496,   19898496,     1152,     2304, 0xf1e3778f
0,   19924992,   19924992,     1152,     2304, 0xca006a25
0,   19951488,   19951488,     1152,     2304, 0xbf5c7f3c
0,   19977984,   19977984,     1152,     2304, 0x74017d34
0,   20004480,   20004480,     1152,     2304, 0x978a7a01
0,   20030976,   20030976,     1152,     2304, 0xfaaa7a27
0,   20057472,   20057472,     1152,     2304, 0x99dd830b
0,   20083968,   20083968,     1152,     2304, 0xff5d822c
0,   20110464,   20110464,     1152,     2304, 0xa8578577
0,   20136960,   20136960,     1152,     2304, 0xa0ec8ef8
0,   20163456,   20163456,     1152,     2304, 0x4fe276e1
0,   20189952,   20189952,     1152,     2304, 0xb7887742
0,   20216448,   20216448,     1152,     2304, 0xb5fc6ae3
0,   20242944,   20242944,     1152,     2304, 0x39498530
0,   20269440,   20269440,     1152,     2304, 0x54c25e7b
0,   20295936,   20295936,     1152,     2304, 0xf4904d98
0,   20322432,   20322432,     1152,     2304, 0x9a927525
0,   20348928,   20348928,     1152,     2304, 0xb35c6905
0,   20375424,   20375424,     1152,     2304, 0xf454877c
0,   20401920,   20401920,     1152,     2304, 0x2a186d7c
0,   20428416,   20428416,     1152,     2304, 0x237f8edb
0,   20454912,   20454912,     1152,     2304, 0x4fbd84d2
0,   20481408,   20481408,     1152,     2304, 0x23906e95
0,   20507904,   20507904,     1152,     2304, 0xd19e7b28
0,   20534400,   20534400,     1152,     2304, 0xc6dc83d5
0,   20560896,   20560896,     1152,     2304, 0xc19973f8
0,   20587392,   20587392,     1152,     2304, 0x0e018524
0,   20613888,   20613888,     1152,     2304, 0x3d8662db
0,   20640384,   20640384,     1152,     2304, 0x39997ad6
0,   20666880,   20666880,     1152,     2304, 0x7867750f
0,   20693376,   20693376,     1152,     2304, 0x73377ab5
0,   20719872,   20719872,     1152,     2304, 0x3a728844
0,   20746368,   20746368,     1152,     2304, 0xe4337c9b
0,   20772864,   20772864,     1152,     2304, 0x94f281b2
0,   20799360,   20799360,     1152,     2304, 0xb83d7a4e
0,   20825856,   20825856,     1152,     2304, 0x66928f2a
0,   20852352,   20852352,     1152,     2304, 0x84b074ed
0,   20878848,   20878848,     1152,     2304, 0x12a07a5d
0,   20905344,   20905344,     1152,     2304, 0x33307d3b
0,   20931840,   20931840,     1152,     2304, 0xcc827830
0,   20958336,   20958336,     1152,     2304, 0x8df48191
0,   20984832,   20984832,     1152,     2304, 0xadd97701
0,   21011328,   21011328,     1152,     2304, 0x81857e6d
0,   21037824,   21037824,     1152,     2304, 0x5e617989
0,   21064320,   21064320,     1152,     2304, 0x59cd7bd8
0,   21090816,   21090816,     1152,     2304, 0x0d9881d7
0,   21117312,   21117312,     1152,     2304, 0x2463704f
0,   21143808,   21143808,     1152,     2304, 0xdfde73d0
0,   21170304,   21170304,     1152,     2304, 0x9485737c
0,   21196800,   21196800,     1152,     2304, 0x49875740
0,   21223296,   21223296,     1152,     2304, 0x6e3d7eaf
0,   21249792,   21249792,     1152,     2304, 0xe6fb73a1
0,   21276288,   21276288,     1152,     2304, 0x7cce7e2e
0,   21302784,   21302784,     1152,     2304, 0x0cfa7743
0,   21329280,   21329280,     1152,     2304, 0xc2df7f6c
0,   21355776,   21355776,     1152,     2304, 0xc60375a0
0,   21382272,   21382272,     1152,     2304, 0xcf727475
0,   21408768,   21408768,     1152,     2304, 0xdc557801
0,   21435264,   21435264,     1152,     2304, 0x53627a8e
0,   21461760,   21461760,     1152,     2304, 0xcaf180c5
0,   21488256,   21488256,     1152,     2304, 0x06b476d0
0,   21514752,   21514752,     1152,     2304, 0x22b07ee1
0,   21541248,   21541248,     1152,     2304, 0x02ff9074
0,   21567744,   21567744,     1152,     2304, 0x230b6def
0,   21594240,   21594240,     1152,     2304, 0x928a93a8
0,   21620736,   21620736,     1152,     2304, 0x565c87df
0,   21647232,   21647232,     1152,     2304, 0x0e1d653c
0,   21673728,   21673728,     1152,     2304, 0xbff375f3
0,   21700224,   21700224,     1152,     2304, 0xd2348572
0,   21726720,   21726720,     1152,     2304, 0x68c3775a
0,   21753216,   21753216,     1152,     2304, 0x572f820d
0,   21779712,   21779712,     1152,     2304, 0xf36390d3
0,   21806208,   21806208,     1152,     2304, 0xc4d88c45
0,   21832704,   21832704,     1152,     2304, 0x68c1796a
0,   21859200,   21859200,     1152,     2304, 0xa0957dcd
0,   21885696,   21885696,     1152,     2304, 0x516d8424
0,   21912192,   21912192,     1152,     2304, 0x44d17d37
0,   21938688,   21938688,     1152,     2304, 0xcfab79a8
0,   21965184,   21965184,     1152,     2304, 0x07c9894e
0,   21991680,   21991680,     1152,     2304, 0x42f17334
0,   22018176,   22018176,     1152,     2304, 0x0df58c05
0,   22044672,   22044672,     1152,     2304, 0xb3087c9c
0,   22071168,   22071168,     1152,     2304, 0x42f475b5
0,   22097664,   22097664,     1152,     2304, 0x6cd27488
0,   22124160,   22124160,     1152,     2304, 0x4b0b8668
0,   22150656,   22150656,     1152,     2304, 0x96d27d0f
0,   22177152,   22177152,     1152,     2304, 0x5b517b43
0,   22203648,   22203648,     1152,     2304, 0x33387c12
0,   22230144,   22230144,     1152,     2304, 0x761e7bba
0,   22256640,   22256640,     1152,     2304, 0x7bd9823b
0,   22283136,   22283136,     1152,     2304, 0xefce72ef
0,   22309632,   22309632,     1152,     2304, 0x6ef0869d
0,   22336128,   22336128,     1152,     2304, 0x4d18764f
0,   22362624,   22362624,     1152,     2304, 0x71c16edc
0,   22389120,   22389120,     1152,     2304, 0x5ee274ff
0,   22415616,   22415616,     1152,     2304, 0x40d971cc
0,   22442112,   22442112,     1152,     2304, 0x80816759
0,   22468608,   22468608,     1152,     2304, 0xacf46694
0,   22495104,   22495104,     1152,     2304, 0x497f8827
0,   22521600,   22521600,     1152,     2304, 0x61b27767
0,   22548096,   22548096,     1152,     2304, 0x2ee08b4b
0,   22574592,   22574592,     1152,     2304, 0x9b948582
0,   22601088,   22601088,     1152,     2304, 0x3c037fce
0,   22627584,   22627584,     1152,     2304, 0x81df7af6
0,   22654080,   22654080,     1152,     2304, 0xb6898a4e
0,   22680576,   22680576,     1152,     2304, 0x46f47a70
0,   22707072,   22707072,     1152,     2304, 0x2513872a
0,   22733568,   22733568,     1152,     2304, 0x583572a5
0,   22760064,   22760064,     1152,     2304, 0x02b97747
0,   22786560,   22786560,     1152,     2304, 0x6edb72cb
0,   22813056,   22813056,     1152,     2304, 0x5b5b7bbd
0,   22839552,   22839552,     1152,     2304, 0xc32d6fda
0,   22866048,   22866048,     1152,     2304, 0xcbc38433
0,   22892544,   22892544,     1152,     2304, 0x1b4670f2
0,   22919040,   22919040,     1152,     2304, 0x544784d8
0,   22945536,   22945536,     1152,     2304, 0xd1378aa8
0,   22972032,   22972032,     1152,     2304, 0xe9607b90
0,   22998528,   22998528,     1152,     2304, 0xa9de8176
0,   23025024,   23025024,     1152,     2304, 0xe48978a9
0,   23051520,   23051520,     1152,     2304, 0x9ea87c30
0,   23078016,   23078016,     1152,     2304, 0x1ce38591
0,   23104512,   23104512,     1152,     2304, 0x83437bd9
0,   23131008,   23131008,     1152,     2304, 0xebe477e4
0,   23157504,   23157504,     1152,     2304, 0xf60a7ea1
0,   23184000,   23184000,     1152,     2304, 0xc8be76e7
0,   23210496,   23210496,     1152,     2304, 0xb76a8669
0,   23236992,   23236992,     1152,     2304, 0x3b50836b
0,   23263488,   23263488,     1152,     2304, 0x27678542
0,   23289984,   23289984,     1152,     2304, 0x041483c5
0,   23316480,   23316480,     1152,     2304, 0x5bbf719b
0,   23342976,   23342976,     1152,     2304, 0x09d0777c
0,   23369472,   23369472,     1152,     2304, 0xc6187f7f
0,   23395968,   23395968,     1152,     2304, 0xd2ae724b
0,   23422464,   23422464,     1152,     2304, 0x4a947e9e
0,   23448960,   23448960,     1152,     2304, 0xfc5d73a0
0,   23475456,   23475456,     1152,     2304, 0x31057e19
0,   23501952,   23501952,     1152,     2304, 0x6155767d
0,   23528448,   23528448,     1152,     2304, 0xe44384e5
0,   23554944,   23554944,     1152,     2304, 0xc07571e1
0,   23581440,   23581440,     1152,     2304, 0xdee481be
0,   23607936,   23607936,     1152,     2304, 0x76cc85df
0,   23634432,   23634432,     1152,     2304, 0x6c6471bd
0,   23660928,   23660928,     1152,     2304, 0x6f5976a4
0,   23687424,   23687424,     1152,     2304, 0xe6ed7b71
0,   23713920,   23713920,     1152,     2304, 0x8cd98965
0,   23740416,   23740416,     1152,     2304, 0xa09f78a5
0,   23766912,   23766912,     1152,     2304, 0x74757873
0,   23793408,   23793408,     1152,     2304, 0xa6ba625b
0,   23819904,   23819904,     1152,     2304, 0xc6187c29
0,   23846400,   23846400,     1152,     2304, 0x5d2a84be
0,   23872896,   23872896,     1152,     2304, 0xf0a8818c
0,   23899392,   23899392,     1152,     2304, 0x5d03886d
0,   23925888,   23925888,     1152,     2304, 0x28487081
0,   23952384,   23952384,     1152,     2304, 0xe4fd81aa
0,   23978880,   23978880,     1152,     2304, 0x65b481cb
0,   24005376,   24005376,     1152,     2304, 0x7e9f87fc
0,   24031872,   24031872,     1152,     2304, 0xa7a25eeb
0,   24058368,   24058368,     1152,     2304, 0xebcd8906
0,   24084864,   24084864,     1152,     2304, 0x341f6c13
0,   24111360,   24111360,     1152,     2304, 0x74008273
0,   24137856,   24137856,     1152,     2304, 0x967c7377
0,   24164352,   24164352,     1152,     2304, 0xb54f70b3
0,   24190848,   24190848,     1152,     2304, 0xc9a283d3
0,   24217344,   24217344,     1152,     2304, 0x4b8777ab
0,   24243840,   24243840,     1152,     2304, 0xd80d7dc7
0,   24270336,   24270336,     1152,     2304, 0x075c7d5b
0,   24296832,   24296832,     1152,     2304, 0x35397026
0,   24323328,   24323328,     1152,     2304, 0x3f526e81
0,   24349824,   24349824,     1152,     2304, 0x3fe67098
0,   24376320,   24376320,     1152,     2304, 0x23b47888
0,   24402816,   24402816,     1152,     2304, 0x3ae27c16
0,   24429312,   24429312,     1152,     2304, 0xe9f881c5
0,   24455808,   24455808,     1152,     2304, 0x2bab90bb
0,   24482304,   24482304,     1152,     2304, 0x9a0668db
0,   24508800,   24508800,     1152,     2304, 0x7c2f77d9
0,   24535296,   24535296,     1152,     2304, 0x98527172
0,   24561792,   24561792,     1152,     2304, 0x31fd7ace
0,   24588288,   24588288,     1152,     2304, 0x1a5d8baa
0,   24614784,   24614784,     1152,     2304, 0xeb748b72
0,   24641280,   24641280,     1152,     2304, 0x52209053
0,   24667776,   24667776,     1152,     2304, 0x570e7bac
0,   24694272,   24694272,     1152,     2304, 0xd6ec7c72
0,   24720768,   24720768,     1152,     2304, 0xc42f8776
0,   24747264,   24747264,     1152,     2304, 0xdc257735
0,   24773760,   24773760,     1152,     2304, 0xeb606e77
0,   24800256,   24800256,     1152,     2304, 0x5d536bad
0,   24826752,   24826752,     1152,     2304, 0x31158180
0,   24853248,   24853248,     1152,     2304, 0x3c176b87
0,   24879744,   24879744,     1152,     2304, 0x205078d2
0,   24906240,   24906240,     1152,     2304, 0x303c84d5
0,   24932736,   24932736,     1152,     2304, 0x6e0e7caa
0,   24959232,   24959232,     1152,     2304, 0x187a6c6f
0,   24985728,   24985728,     1152,     2304, 0xfca77e51
0,   25012224,   25012224,     1152,     2304, 0xd14c7ad8
0,   25038720,   25038720,     1152,     2304, 0x408074b2
0,   25065216,   25065216,     1152,     2304, 0xc8db73fb
0,   25091712,   25091712,     1152,     2304, 0x712879e9
0,   25118208,   25118208,     1152,     2304, 0x9766700e
0,   25144704,   25144704,     1152,     2304, 0x852a8234
0,   25171200,   25171200,     1152,     2304, 0x942c6b77
0,   25197696,   25197696,     1152,     2304, 0x7eeb7ad6
0,   25224192,   25224192,     1152,     2304, 0x10fc786d
0,   25250688,   25250688,     1152,     2304, 0xf22e7a8a
0,   25277184,   25277184,     1152,     2304, 0x7b3373f0
0,   25303680,   25303680,     1152,     2304, 0xfc577a3c
0,   25330176,   25330176,     1152,     2304, 0x0aa97f3e
0,   25356672,   25356672,     1152,     2304, 0xbd4e74b2
0,   25383168,   25383168,     1152,     2304, 0x93d47493
0,   25409664,   25409664,     1152,     2304, 0x7c247ec0
0,   25436160,   25436160,     1152,     2304, 0x17ea7bba
0,   25462656,   25462656,     1152,     2304, 0x9e5873ba
0,   25489152,   25489152,     1152,     2304, 0xc1808329
0,   25515648,   25515648,     1152,     2304, 0x99376ef7
0,   25542144,   25542144,     1152,     2304, 0x2e0b7bb5
0,   25568640,   25568640,     1152,     2304, 0xb0b78677
0,   25595136,   25595136,     1152,     2304, 0x66bc7304
0,   25621632,   25621632,     1152,     2304, 0xd50d7b1f
0,   25648128,   25648128,     1152,     2304, 0xd9a38306
0,   25674624,   25674624,     1152,     2304, 0x085577b1
0,   25701120,   25701120,     1152,     2304, 0xb3937e88
0,   25727616,   25727616,     1152,     2304, 0xe55a7235
0,   25754112,   25754112,     1152,     2304, 0xc33e6e08
0,   25780608,   25780608,     1152,     2304, 0x19867c8b
0,   25807104,   25807104,     1152,     2304, 0xcfbd684c
0,   25833600,   25833600,     1152,     2304, 0xa946790b
0,   25860096,   25860096,     1152,     2304, 0x81ca802e
0,   25886592,   25886592,     1152,     2304, 0xc380754a
0,   25913088,   25913088,     1152,     2304, 0xd7587474
0,   25939584,   25939584,     1152,     2304, 0x6bed84aa
0,   25966080,   25966080,     1152,     2304, 0x47bf706b
0,   25992576,   25992576,     1152,     2304, 0x814989b1
0,   26019072,   26019072,     1152,     2304, 0x63f6965e
0,   26045568,   26045568,     1152,     2304, 0xcb5d6a56
0,   26072064,   26072064,     1152,     2304, 0x34a48305
0,   26098560,   26098560,     1152,     2304, 0xaba08301
0,   26125056,   26125056,     1152,     2304, 0xeaff71df
0,   26151552,   26151552,     1152,     2304, 0xc011782b
0,   26178048,   26178048,     1152,     2304, 0x44026f21
0,   26204544,   26204544,     1152,     2304, 0x8efa7ba6
0,   26231040,   26231040,     1152,     2304, 0x4aa681fe
0,   26257536,   26257536,     1152,     2304, 0xba9473bf
0,   26284032,   26284032,     1152,     2304, 0x92c77d8e
0,   26310528,   26310528,     1152,     2304, 0x35e788af
0,   26337024,   26337024,     1152,     2304, 0xc16e7c4b
0,   26363520,   26363520,     1152,     2304, 0x55719348
0,   26390016,   26390016,     1152,     2304, 0xc4e1794f
0,   26416512,   26416512,     1152,     2304, 0x36a16d0b
0,   26443008,   26443008,     1152,     2304, 0x13f977dc
0,   26469504,   26469504,     1152,     2304, 0x761191bb
0,   26496000,   26496000,     1152,     2304, 0x06dd7a49
0,   26522496,   26522496,     1152,     2304, 0xb334889d
0,   26548992,   26548992,     1152,     2304, 0xb85d7f82
0,   26575488,   26575488,     1152,     2304, 0x410976b1
0,   26601984,   26601984,     1152,     2304, 0xbb087183
0,   26628480,   26628480,     1152,     2304, 0x278c8b18
0,   26654976,   26654976,     1152,     2304, 0x83257094
0,   26681472,   26681472,     1152,     2304, 0x74b67e16
0,   26707968,   26707968,     1152,     2304, 0xe2747e1b
0,   26734464,   26734464,     1152,     2304, 0xa9507c46
0,   26760960,   26760960,     1152,     2304, 0xba887bcb
0,   26787456,   26787456,     1152,     2304, 0x9b5f7248
0,   26813952,   26813952,     1152,     2304, 0x77de6aca
0,   26840448,   26840448,     1152,     2304, 0x25407797
0,   26866944,   26866944,     1152,     2304, 0xaed68588
0,   26893440,   26893440,     1152,     2304, 0x603785b4
0,   26919936,   26919936,     1152,     2304, 0xdae07e41
0,   26946432,   26946432,     1152,     2304, 0x4d157d73
0,   26972928,   26972928,     1152,     2304, 0x620a64da
0,   26999424,   26999424,     1152,     2304, 0x94318931
0,   27025920,   27025920,     1152,     2304, 0x20e08195
0,   27052416,   27052416,     1152,     2304, 0x417f7653
0,   27078912,   27078912,     1152,     2304, 0x77237984
0,   27105408,   27105408,     1152,     2304, 0xff037fe9
0,   27131904,   27131904,     1152,     2304, 0xd1c36e1f
0,   27158400,   27158400,     1152,     2304, 0x98ac7f2c
0,   27184896,   27184896,     1152,     2304, 0xc2637fc3
0,   27211392,   27211392,     1152,     2304, 0x0d6085a9
0,   27237888,   27237888,     1152,     2304, 0x5b99743f
0,   27264384,   27264384,     1152,     2304, 0xb0cb7893
0,   27290880,   27290880,     1152,     2304, 0xee747a4e
0,   27317376,   27317376,     1152,     2304, 0xe51277a8
0,   27343872,   27343872,     1152,     2304, 0xe2d48689
0,   27370368,   27370368,     1152,     2304, 0x0f026f4d
0,   27396864,   27396864,     1152,     2304, 0x30cd7a6f
0,   27423360,   27423360,     1152,     2304, 0xedbe724b
0,   27449856,   27449856,     1152,     2304, 0xb15d83cb
0,   27476352,   27476352,     1152,     2304, 0x757c6bc9
0,   27502848,   27502848,     1152,     2304, 0x278675d5
0,   27529344,   27529344,     1152,     2304, 0x90a57a90
0,   27555840,   27555840,     1152,     2304, 0x482a82d8
0,   27582336,   27582336,     1152,     2304, 0x6f6c8783
0,   27608832,   27608832,     1152,     2304, 0x864b79e7
0,   27635328,   27635328,     1152,     2304, 0x28296a02
0,   27661824,   27661824,     1152,     2304, 0x25d283d4
0,   27688320,   27688320,     1152,     2304, 0x3b6a941e
0,   27714816,   27714816,     1152,     2304, 0xcffd7bef
0,   27741312,   27741312,     1152,     2304, 0xff387de8
0,   27767808,   27767808,     1152,     2304, 0x7fa477c7
0,   27794304,   27794304,     1152,     2304, 0x66766aa9
0,   27820800,   27820800,     1152,     2304, 0xd419747b
0,   27847296,   27847296,     1152,     2304, 0x40bd801c
0,   27873792,   27873792,     1152,     2304, 0x6a328208
0,   27900288,   27900288,     1152,     2304, 0x75ca892a
0,   27926784,   27926784,     1152,     2304, 0x8e438662
0,   27953280,   27953280,     1152,     2304, 0xdb02849e
0,   27979776,   27979776,     1152,     2304, 0x88268894
0,   28006272,   28006272,     1152,     2304, 0xf040681f
0,   28032768,   28032768,     1152,     2304, 0x04556f7a
0,   28059264,   28059264,     1152,     2304, 0xb40c72c0
0,   28085760,   28085760,     1152,     2304, 0xed157bf3
0,   28112256,   28112256,     1152,     2304, 0x3528774f
0,   28138752,   28138752,     1152,     2304, 0xbb7f786d
0,   28165248,   28165248,     1152,     2304, 0xb449816b
0,   28191744,   28191744,     1152,     2304, 0x775178d8
0,   28218240,   28218240,     1152,     2304, 0x8f90799a
0,   28244736,   28244736,     1152,     2304, 0x2dfb862f
0,   28271232,   28271232,     1152,     2304, 0x9b8f8131
0,   28297728,   28297728,     1152,     2304, 0xfba18144
0,   28324224,   28324224,     1152,     2304, 0x74cb86d1
0,   28350720,   28350720,     1152,     2304, 0x7c197697
0,   28377216,   28377216,     1152,     2304, 0x62226f3f
0,   28403712,   28403712,     1152,     2304, 0xc60072a6
0,   28430208,   28430208,     1152,     2304, 0x184d704b
0,   28456704,   28456704,     1152,     2304, 0x63de7dbd
0,   28483200,   28483200,     1152,     2304, 0x7b0a8e31
0,   28509696,   28509696,     1152,     2304, 0x0e438531
0,   28536192,   28536192,     1152,     2304, 0xaf9a7a84
0,   28562688,   28562688,     1152,     2304, 0xd6117648
0,   28589184,   28589184,     1152,     2304, 0x7efb8884
0,   28615680,   28615680,     1152,     2304, 0x265481d0
0,   28642176,   28642176,     1152,     2304, 0xed437215
0,   28668672,   28668672,     1152,     2304, 0xf26a7145
0,   28695168,   28695168,     1152,     2304, 0x367a7c3a
0,   28721664,   28721664,     1152,     2304, 0xca757691
0,   28748160,   28748160,     1152,     2304, 0x7b0c61d6
0,   28774656,   28774656,     1152,     2304, 0x44428338
0,   28801152,   28801152,     1152,     2304, 0x9d55810e
0,   28827648,   28827648,     1152,     2304, 0xbe9c7f51
0,   28854144,   28854144,     1152,     2304, 0x5446815e
0,   28880640,   28880640,     1152,     2304, 0xde787e10
0,   28907136,   28907136,     1152,     2304, 0x7ae2867c
0,   28933632,   28933632,     1152,     2304, 0x5ea979eb
0,   28960128,   28960128,     1152,     2304, 0x61547b82
0,   28986624,   28986624,     1152,     2304, 0xd68c81d2
0,   29013120,   29013120,     1152,     2304, 0xaf037a22
0,   29039616,   29039616,     1152,     2304, 0x0a327174
0,   29066112,   29066112,     1152,     2304, 0xc3e48098
0,   29092608,   29092608,     1152,     2304, 0xae297c3d
0,   29119104,   29119104,     1152,     2304, 0xd3707a27
0,   29145600,   29145600,     1152,     2304, 0x80bf862d
0,   29172096,   29172096,     1152,     2304, 0x7c82751b
0,   29198592,   29198592,     1152,     2304, 0x3c5e8f11
0,   29225088,   29225088,     1152,     2304, 0xd03672d8
0,   29251584,   29251584,     1152,     2304, 0x0cde7a38
0,   29278080,   29278080,     1152,     2304, 0x6eb0819c
0,   29304576,   29304576,     1152,     2304, 0x73517fab
0,   29331072,   29331072,     1152,     2304, 0x484868fa
0,   29357568,   29357568,     1152,     2304, 0x9b337dac
0,   29384064,   29384064,     1152,     2304, 0x93397cf9
0,   29410560,   29410560,     1152,     2304, 0xb5fb82b6
0,   29437056,   29437056,     1152,     2304, 0x8abf8fae
0,   29463552,   29463552,     1152,     2304, 0x4bb176f3
0,   29490048,   29490048,     1152,     2304, 0xc85d7507
0,   29516544,   29516544,     1152,     2304, 0x82a477b3
0,   29543040,   29543040,     1152,     2304, 0x0a3a8736
0,   29569536,   29569536,     1152,     2304, 0x308d755a
0,   29596032,   29596032,     1152,     2304, 0x5cea5cd2
0,   29622528,   29622528,     1152,     2304, 0x67308d47
0,   29649024,   29649024,     1152,     2304, 0x58318770
0,   29675520,   29675520,     1152,     2304, 0x6b2d7eee
0,   29702016,   29702016,     1152,     2304, 0x23138437
0,   29728512,   29728512,     1152,     2304, 0xbe817942
0,   29755008,   29755008,     1152,     2304, 0xdadc6c4b
0,   29781504,   29781504,     1152,     2304, 0x931988ec
0,   29808000,   29808000,     1152,     2304, 0x6b2f788e
0,   29834496,   29834496,     1152,     2304, 0x8cab90e9
0,   29860992,   29860992,     1152,     2304, 0x83b87ebd
0,   29887488,   29887488,     1152,     2304, 0xc2b174f4
0,   29913984,   29913984,     1152,     2304, 0x0c216dcc
0,   29940480,   29940480,     1152,     2304, 0x75a97d69
0,   29966976,   29966976,     1152,     2304, 0x4b1f7683
0,   29993472,   29993472,     1152,     2304, 0xc7067e17
0,   30019968,   30019968,     1152,     2304, 0x38d782fb
0,   30046464,   30046464,     1152,     2304, 0x8b548264
0,   30072960,   30072960,     1152,     2304, 0xe4a87f76
0,   30099456,   30099456,     1152,     2304, 0x4e617e8f
0,   30125952,   30125952,     1152,     2304, 0xbe77743c
0,   30152448,   30152448,     1152,     2304, 0xefb48145
0,   30178944,   30178944,     1152,     2304, 0x1db27111
0,   30205440,   30205440,     1152,     2304, 0xbd386b70
0,   30231936,   30231936,     1152,     2304, 0x0bf689d1
0,   30258432,   30258432,     1152,     2304, 0x10817175
0,   30284928,   30284928,     1152,     2304, 0x48068a8b
0,   30311424,   30311424,     1152,     2304, 0x71a2718e
0,   30337920,   30337920,     1152,     2304, 0xae7d7838
0,   30364416,   30364416,     1152,     2304, 0x36bd8e8e
0,   30390912,   30390912,     1152,     2304, 0x4d927d70
0,   30417408,   30417408,     1152,     2304, 0x3c9878ed
0,   30443904,   30443904,     1152,     2304, 0x9c7f7a51
0,   30470400,   30470400,     1152,     2304, 0xa3818205
0,   30496896,   30496896,     1152,     2304, 0x22c573c9
0,   30523392,   30523392,     1152,     2304, 0x4a1a71a1
0,   30549888,   30549888,     1152,     2304, 0x3de876f6
0,   30576384,   30576384,     1152,     2304, 0x16fb75ce
0,   30602880,   30602880,     1152,     2304, 0xc78e882a
0,   30629376,   30629376,     1152,     2304, 0xa8e167ec
0,   30655872,   30655872,     1152,     2304, 0x3a9d7ea5
0,   30682368,   30682368,     1152,     2304, 0x2e598348
0,   30708864,   30708864,     1152,     2304, 0x06de8782
0,   30735360,   30735360,     1152,     2304, 0x5945639d
0,   30761856,   30761856,     1152,     2304, 0x0c317166
0,   30788352,   30788352,     1152,     2304, 0x3b9c7ce6
0,   30814848,   30814848,     1152,     2304, 0x1a007fac
0,   30841344,   30841344,     1152,     2304, 0xc0b46ee3
0,   30867840,   30867840,     1152,     2304, 0x6cc7884f
0,   30894336,   30894336,     1152,     2304, 0xd98481b6
0,   30920832,   30920832,     1152,     2304, 0x4c807656
0,   30947328,   30947328,     1152,     2304, 0x764f833a
0,   30973824,   30973824,     1152,     2304, 0xe0357b16
0,   31000320,   31000320,     1152,     2304, 0x2c5f8363
0,   31026816,   31026816,     1152,     2304, 0xcdc97ae8
0,   31053312,   31053312,     1152,     2304, 0x4024796d
0,   31079808,   31079808,     1152,     2304, 0x26ad7fd0
0,   31106304,   31106304,     1152,     2304, 0x0eca7555
0,   31132800,   31132800,     1152,     2304, 0xef3c803f
0,   31159296,   31159296,     1152,     2304, 0x40c87784
0,   31185792,   31185792,     1152,     2304, 0xa35f7c5f
0,   31212288,   31212288,     1152,     2304, 0xeb7966bd
0,   31238784,   31238784,     1152,     2304, 0x6f836d62
0,   31265280,   31265280,     1152,     2304, 0x170a783b
0,   31291776,   31291776,     1152,     2304, 0xd4957f7d
0,   31318272,   31318272,     1152,     2304, 0xf74e7893
0,   31344768,   31344768,     1152,     2304, 0xf8557cb9
0,   31371264,   31371264,     1152,     2304, 0x0c618309
0,   31397760,   31397760,     1152,     2304, 0x8b317db8
0,   31424256,   31424256,     1152,     2304, 0x04f585f8
0,   31450752,   31450752,     1152,     2304, 0xa7a77725
0,   31477248,   31477248,     1152,     2304, 0x306a7519
0,   31503744,   31503744,     1152,     2304, 0x1483976e
0,   31530240,   31530240,     1152,     2304, 0x278c80b3
0,   31556736,   31556736,     1152,     2304, 0x16ab71d3
0,   31583232,   31583232,     1152,     2304, 0xcf888625
0,   31609728,   31609728,     1152,     2304, 0x332672f3
0,   31636224,   31636224,     1152,     2304, 0x46bd77a1
0,   31662720,   31662720,     1152,     2304, 0x02de854e
0,   31689216,   31689216,     1152,     2304, 0x41ec8372
0,   31715712,   31715712,     1152,     2304, 0xfe806e23
0,   31742208,   31742208,     1152,     2304, 0x72a284d0
0,   31768704,   31768704,     1152,     2304, 0x91a68980
0,   31795200,   31795200,     1152,     2304, 0x262098c5
0,   31821696,   31821696,     1152,     2304, 0x54027c02
0,   31848192,   31848192,     1152,     2304, 0x034289f6
0,   31874688,   31874688,     1152,     2304, 0xb88887bf
0,   31901184,   31901184,     1152,     2304, 0xcbba7942
0,   31927680,   31927680,     1152,     2304, 0xbb308a38
0,   31954176,   31954176,     1152,     2304, 0x0e5b763c
0,   31980672,   31980672,     1152,     2304, 0xc2f37408
0,   32007168,   32007168,     1152,     2304, 0x760a7e15
0,   32033664,   32033664,     1152,     2304, 0x1d497541
0,   32060160,   32060160,     1152,     2304, 0x38f4738c
0,   32086656,   32086656,     1152,     2304, 0x93fd70f4
0,   32113152,   32113152,     1152,     2304, 0x1c07872c
0,   32139648,   32139648,     1152,     2304, 0x919f6794
0,   32166144,   32166144,     1152,     2304, 0xa5a67e21
0,   32192640,   32192640,     1152,     2304, 0x14267a09
0,   32219136,   32219136,     1152,     2304, 0xf98e8b14
0,   32245632,   32245632,     1152,     2304, 0x4dc47fea
0,   32272128,   32272128,     1152,     2304, 0x5693861a
0,   32298624,   32298624,     1152,     2304, 0x82bb7cc7
0,   32325120,   32325120,     1152,     2304, 0x7bf36a94
0,   32351616,   32351616,     1152,     2304, 0xc1368a60
0,   32378112,   32378112,     1152,     2304, 0x854c8daa
0,   32404608,   32404608,     1152,     2304, 0x6631794c
0,   32431104,   32431104,     1152,     2304, 0x935f69ab
0,   32457600,   32457600,     1152,     2304, 0xdf087582
0,   32484096,   32484096,     1152,     2304, 0xdea978b1
0,   32510592,   32510592,     1152,     2304, 0xec077e60
0,   32537088,   32537088,     1152,     2304, 0x06cf7aa4
0,   32563584,   32563584,     1152,     2304, 0xb6cf7742
0,   32590080,   32590080,     1152,     2304, 0xfaf46f2b
0,   32616576,   32616576,     1152,     2304, 0xfb0f84c7
0,   32643072,   32643072,     1152,     2304, 0x5c127e15
0,   32669568,   32669568,     1152,     2304, 0x70ab7bea
0,   32696064,   32696064,     1152,     2304, 0xff0a94a6
0,   32722560,   32722560,     1152,     2304, 0xd1ab6d5c
0,   32749056,   32749056,     1152,     2304, 0x4a608144
0,   32775552,   32775552,     1152,     2304, 0xa8b38177
0,   32802048,   32802048,     1152,     2304, 0x90b276b1
0,   32828544,   32828544,     1152,     2304, 0x8eac733c
0,   32855040,   32855040,     1152,     2304, 0xa85f7a0c
0,   32881536,   32881536,     1152,     2304, 0xf4967ce2
0,   32908032,   32908032,     1152,     2304, 0x5c8c8593
0,   32934528,   32934528,     1152,     2304, 0xd3f681d7
0,   32961024,   32961024,     1152,     2304, 0x6b9e8526
0,   32987520,   32987520,     1152,     2304, 0x9f6998be
0,   33014016,   33014016,     1152,     2304, 0x71c1759c
0,   33040512,   33040512,     1152,     2304, 0x4b38849d
0,   33067008,   33067008,     1152,     2304, 0x72db8057
0,   33093504,   33093504,     1152,     2304, 0x4269711b
0,   33120000,   33120000,     1152,     2304, 0xe06a7323
0,   33146496,   33146496,     1152,     2304, 0x350d6d2c
0,   33172992,   33172992,     1152,     2304, 0x4a557597
0,   33199488,   33199488,     1152,     2304, 0x2a5f7512
0,   33225984,   33225984,     1152,     2304, 0xd66484c1
0,   33252480,   33252480,     1152,     2304, 0x556c6b8c
0,   33278976,   33278976,     1152,     2304, 0x09d97dfb
0,   33305472,   33305472,     1152,     2304, 0xdd3b8b29
0,   33331968,   33331968,     1152,     2304, 0xf4387466
0,   33358464,   33358464,     1152,     2304, 0x4aef74f4
0,   33384960,   33384960,     1152,     2304, 0xc823774d
0,   33411456,   33411456,     1152,     2304, 0x5fc780c0
0,   33437952,   33437952,     1152,     2304, 0x19008d6f
0,   33464448,   33464448,     1152,     2304, 0x9e1b82ad
0,   33490944,   33490944,     1152,     2304, 0x970c8302
0,   33517440,   33517440,     1152,     2304, 0x701878b3
0,   33543936,   33543936,     1152,     2304, 0x16146dad
0,   33570432,   33570432,     1152,     2304, 0x8e647876
0,   33596928,   33596928,     1152,     2304, 0x9f5a7f4d
0,   33623424,   33623424,     1152,     2304, 0x14447e98
0,   33649920,   33649920,     1152,     2304, 0xbccf74ce
0,   33676416,   33676416,     1152,     2304, 0x6b968374
0,   33702912,   33702912,     1152,     2304, 0xb798791f
0,   33729408,   33729408,     1152,     2304, 0xb5e07600
0,   33755904,   33755904,     1152,     2304, 0x99d08bac
0,   33782400,   33782400,     1152,     2304, 0xa7d573b6
0,   33808896,   33808896,     1152,     2304, 0xcccc62ff
0,   33835392,   33835392,     1152,     2304, 0xfad88378
0,   33861888,   33861888,     1152,     2304, 0x19317ad4
0,   33888384,   33888384,     1152,     2304, 0x8955753f
0,   33914880,   33914880,     1152,     2304, 0x95d88fc5
0,   33941376,   33941376,     1152,     2304, 0x8b5176af
0,   33967872,   33967872,     1152,     2304, 0xce1d6e67
0,   33994368,   33994368,     1152,     2304, 0xc9467ef4
0,   34020864,   34020864,     1152,     2304, 0x4f0e7d48
0,   34047360,   34047360,     1152,     2304, 0x9bdf8287
0,   34073856,   34073856,     1152,     2304, 0xc28e8063
0,   34100352,   34100352,     1152,     2304, 0x42007dd8
0,   34126848,   34126848,     1152,     2304, 0x9f30767f
0,   34153344,   34153344,     1152,     2304, 0x40a275ac
0,   34179840,   34179840,     1152,     2304, 0x440786c6
0,   34206336,   34206336,     1152,     2304, 0x1118650d
0,   34232832,   34232832,     1152,     2304, 0xd8307b69
0,   34259328,   34259328,     1152,     2304, 0x24be7fae
0,   34285824,   34285824,     1152,     2304, 0xa82f7a9f
0,   34312320,   34312320,     1152,     2304, 0xc2e560a0
0,   34338816,   34338816,     1152,     2304, 0x15278fec
0,   34365312,   34365312,     1152,     2304, 0x28b17416
0,   34391808,   34391808,     1152,     2304, 0x12297d00
0,   34418304,   34418304,     1152,     2304, 0xaabd7141
0,   34444800,   34444800,     1152,     2304, 0x882579bf
0,   34471296,   34471296,     1152,     2304, 0xa4597dce
0,   34497792,   34497792,     1152,     2304, 0xf0b978d1
0,   34524288,   34524288,     1152,     2304, 0x982a7166
0,   34550784,   34550784,     1152,     2304, 0x6eb67c25
0,   34577280,   34577280,     1152,     2304, 0x82c07c9a
0,   34603776,   34603776,     1152,     2304, 0x21f682ee
0,   34630272,   34630272,     1152,     2304, 0x29da6ca8
0,   34656768,   34656768,     1152,     2304, 0x2a6d86ee
0,   34683264,   34683264,     1152,     2304, 0x6b4668f3
0,   34709760,   34709760,     1152,     2304, 0xe576943d
0,   34736256,   34736256,     1152,     2304, 0xfd61776f
0,   34762752,   34762752,     1152,     2304, 0xaf5e7224
0,   34789248,   34789248,     1152,     2304, 0x89c082a3
0,   34815744,   34815744,     1152,     2304, 0x4dec743e
0,   34842240,   34842240,     1152,     2304, 0x3db98b7b
0,   34868736,   34868736,     1152,     2304, 0xcbe97312
0,   34895232,   34895232,     1152,     2304, 0xd2dd8da6
0,   34921728,   34921728,     1152,     2304, 0x05386f07
0,   34948224,   34948224,     1152,     2304, 0x57aa715b
0,   34974720,   34974720,     1152,     2304, 0x8b5b804c
0,   35001216,   35001216,     1152,     2304, 0xf2e087c8
0,   35027712,   35027712,     1152,     2304, 0xcdb87dd0
0,   35054208,   35054208,     1152,     2304, 0xc62372bd
0,   35080704,   35080704,     1152,     2304, 0x072e630b
0,   35107200,   35107200,     1152,     2304, 0x023c88d9
0,   35133696,   35133696,     1152,     2304, 0xee9a73cd
0,   35160192,   35160192,     1152,     2304, 0xf1e1782b
0,   35186688,   35186688,     1152,     2304, 0xf88d7144
0,   35213184,   35213184,     1152,     2304, 0xcd366f33
0,   35239680,   35239680,     1152,     2304, 0x28237f4e
0,   35266176,   35266176,     1152,     2304, 0xe13987df
0,   35292672,   35292672,     1152,     2304, 0x5e846d1d
0,   35319168,   35319168,     1152,     2304, 0x800c88ee
0,   35345664,   35345664,     1152,     2304, 0xdb6669c6
0,   35372160,   35372160,     1152,     2304, 0x29b6816d
0,   35398656,   35398656,     1152,     2304, 0x805e7b1d
0,   35425152,   35425152,     1152,     2304, 0xcd767c48
0,   35451648,   35451648,     1152,     2304, 0x4f978326
0,   35478144,   35478144,     1152,     2304, 0xfdd86f23
0,   35504640,   35504640,     1152,     2304, 0x57ad759c
0,   35531136,   35531136,     1152,     2304, 0x87d77171
0,   35557632,   35557632,     1152,     2304, 0xca577b95
0,   35584128,   35584128,     1152,     2304, 0x6e618e51
0,   35610624,   35610624,     1152,     2304, 0x5fe78492
0,   35637120,   35637120,     1152,     2304, 0xdf5d6c0f
0,   35663616,   35663616,     1152,     2304, 0xb8527894
0,   35690112,   35690112,     1152,     2304, 0x2c9d7892
0,   35716608,   35716608,     1152,     2304, 0x157c6c20
0,   35743104,   35743104,     1152,     2304, 0x0548874b
0,   35769600,   35769600,     1152,     2304, 0x9f076e65
0,   35796096,   35796096,     1152,     2304, 0x93e57fe4
0,   35822592,   35822592,     1152,     2304, 0x066473ce
0,   35849088,   35849088,     1152,     2304, 0x1bb17777
0,   35875584,   35875584,     1152,     2304, 0xad309096
0,   35902080,   35902080,     1152,     2304, 0x4e3f707d
0,   35928576,   35928576,     1152,     2304, 0xe8666e72
0,   35955072,   35955072,     1152,     2304, 0xd17e8038
0,   35981568,   35981568,     1152,     2304, 0x686176f1
0,   36008064,   36008064,     1152,     2304, 0xd0f27585
0,   36034560,   36034560,     1152,     2304, 0x84415d92
0,   36061056,   36061056,     1152,     2304, 0xf0a67d6e
0,   36087552,   36087552,     1152,     2304, 0x61e17941
0,   36114048,   36114048,     1152,     2304, 0x923966be
0,   36140544,   36140544,     1152,     2304, 0x903f67ea
0,   36167040,   36167040,     1152,     2304, 0x68158063
0,   36193536,   36193536,     1152,     2304, 0x1ce78400
0,   36220032,   36220032,     1152,     2304, 0xae2f8b09
0,   36246528,   36246528,     1152,     2304, 0x85427178
0,   36273024,   36273024,     1152,     2304, 0x1d7984b4
0,   36299520,   36299520,     1152,     2304, 0x99027b1d
0,   36326016,   36326016,     1152,     2304, 0xc86b856d
0,   36352512,   36352512,     1152,     2304, 0xa7a284ec
0,   36379008,   36379008,     1152,     2304, 0xa0b07cbf
0,   36405504,   36405504,     1152,     2304, 0xb3457b4b
0,   36432000,   36432000,     1152,     2304, 0x7ff978dd
0,   36458496,   36458496,     1152,     2304, 0xd2ad761f
0,   36484992,   36484992,     1152,     2304, 0x79467c2f
0,   36511488,   36511488,     1152,     2304, 0x5d367b26
0,   36537984,   36537984,     1152,     2304, 0x0c2c7d96
0,   36564480,   36564480,     1152,     2304, 0x744a8362
0,   36590976,   36590976,     1152,     2304, 0x7e24707b
0,   36617472,   36617472,     1152,     2304, 0xb9d47806
0,   36643968,   36643968,     1152,     2304, 0x5d817a91
0,   36670464,   36670464,     1152,     2304, 0x61987d85
0,   36696960,   36696960,     1152,     2304, 0xb3fd8553
0,   36723456,   36723456,     1152,     2304, 0xd9cf7e8a
0,   36749952,   36749952,     1152,     2304, 0x2f0382b9
0,   36776448,   36776448,     1152,     2304, 0xbed96b2c
0,   36802944,   36802944,     1152,     2304, 0xddb08cc4
0,   36829440,   36829440,     1152,     2304, 0x63f274c1
0,   36855936,   36855936,     1152,     2304, 0xacfc8649
0,   36882432,   36882432,     1152,     2304, 0xccaa6a22
0,   36908928,   36908928,     1152,     2304, 0xdfb27023
0,   36935424,   36935424,     1152,     2304, 0xf7437450
0,   36961920,   36961920,     1152,     2304, 0x9bd979ac
0,   36988416,   36988416,     1152,     2304, 0xefcc712e
0,   37014912,   37014912,     1152,     2304, 0x9adb75c1
0,   37041408,   37041408,     1152,     2304, 0x4e087be1
0,   37067904,   37067904,     1152,     2304, 0x1e7c82e4
0,   37094400,   37094400,     1152,     2304, 0x13bf8059
0,   37120896,   37120896,     1152,     2304, 0xd36a864a
0,   37147392,   37147392,     1152,     2304, 0x796972b4
0,   37173888,   37173888,     1152,     2304, 0x5bf075cb
0,   37200384,   37200384,     1152,     2304, 0x4e7f6821
0,   37226880,   37226880,     1152,     2304, 0x11c779af
0,   37253376,   37253376,     1152,     2304, 0x64b47f64
0,   37279872,   37279872,     1152,     2304, 0xef547d05
0,   37306368,   37306368,     1152,     2304, 0xb7de86dd
0,   37332864,   37332864,     1152,     2304, 0xe73b6fb5
0,   37359360,   37359360,     1152,     2304, 0x8db66f6c
0,   37385856,   37385856,     1152,     2304, 0x04dd7828
0,   37412352,   37412352,     1152,     2304, 0x5d8c833d
0,   37438848,   37438848,     1152,     2304, 0xeb757e05
0,   37465344,   37465344,     1152,     2304, 0xcec272ab
0,   37491840,   37491840,     1152,     2304, 0x286b7a00
0,   37518336,   37518336,     1152,     2304, 0x0323762b
0,   37544832,   37544832,     1152,     2304, 0x0f9b79de
0,   37571328,   37571328,     1152,     2304, 0xef457010
0,   37597824,   37597824,     1152,     2304, 0xcc0972d0
0,   37624320,   37624320,     1152,     2304, 0xce2a84a7
0,   37650816,   37650816,     1152,     2304, 0x83e86935
0,   37677312,   37677312,     1152,     2304, 0x9f506ade
0,   37703808,   37703808,     1152,     2304, 0x2db17866
0,   37730304,   37730304,     1152,     2304, 0x3b28781e
0,   37756800,   37756800,     1152,     2304, 0xdc0a77fd
0,   37783296,   37783296,     1152,     2304, 0x467089cb
0,   37809792,   37809792,     1152,     2304, 0x3fb07308
0,   37836288,   37836288,     1152,     2304, 0x64db75ff
0,   37862784,   37862784,     1152,     2304, 0x409d7b16
0,   37889280,   37889280,     1152,     2304, 0x41e67ee7
0,   37915776,   37915776,     1152,     2304, 0x69b47d91
0,   37942272,   37942272,     1152,     2304, 0x8d548a32
0,   37968768,   37968768,     1152,     2304, 0x5788817e
0,   37995264,   37995264,     1152,     2304, 0x85b67f9b
0,   38021760,   38021760,     1152,     2304, 0x551380cf
0,   38048256,   38048256,     1152,     2304, 0xa3ae7ebc
0,   38074752,   38074752,     1152,     2304, 0x4fcd7e5c
0,   38101248,   38101248,     1152,     2304, 0x29d47c8a
0,   38127744,   38127744,     1152,     2304, 0xfadf8829
0,   38154240,   38154240,     1152,     2304, 0xb16c6fe9
0,   38180736,   38180736,     1152,     2304, 0xa6f27d34
0,   38207232,   38207232,     1152,     2304, 0xb62e73e8
0,   38233728,   38233728,     1152,     2304, 0x64287c6d
0,   38260224,   38260224,     1152,     2304, 0xb76c926a
0,   38286720,   38286720,     1152,     2304, 0x84eb6ceb
0,   38313216,   38313216,     1152,     2304, 0x77ba8992
0,   38339712,   38339712,     1152,     2304, 0x4a58806c
0,   38366208,   38366208,     1152,     2304, 0x6d5470be
0,   38392704,   38392704,     1152,     2304, 0x392c6cf2
0,   38419200,   38419200,     1152,     2304, 0xfb6481f4
0,   38445696,   38445696,     1152,     2304, 0xa7776fea
0,   38472192,   38472192,     1152,     2304, 0x6e257f58
0,   38498688,   38498688,     1152,     2304, 0x035880e9
0,   38525184,   38525184,     1152,     2304, 0x29da6e9e
0,   38551680,   38551680,     1152,     2304, 0x64b17e41
0,   38578176,   38578176,     1152,     2304, 0x381578ae
0,   38604672,   38604672,     1152,     2304, 0x7d8f7c8a
0,   38631168,   38631168,     1152,     2304, 0x460081bb
0,   38657664,   38657664,     1152,     2304, 0x648a9d00
0,   38684160,   38684160,     1152,     2304, 0x778d6f7c
0,   38710656,   38710656,     1152,     2304, 0x7e857c97
0,   38737152,   38737152,     1152,     2304, 0x1cdd9830
0,   38763648,   38763648,     1152,     2304, 0x099f83d1
0,   38790144,   38790144,     1152,     2304, 0x2b506982
0,   38816640,   38816640,     1152,     2304, 0x058b7dc3
0,   38843136,   38843136,     1152,     2304, 0x16a07c3b
0,   38869632,   38869632,     1152,     2304, 0xd63077df
0,   38896128,   38896128,     1152,     2304, 0xd85c7b57
0,   38922624,   38922624,     1152,     2304, 0x084f8321
0,   38949120,   38949120,     1152,     2304, 0x665e7b30
0,   38975616,   38975616,     1152,     2304, 0xca0972fa
0,   39002112,   39002112,     1152,     2304, 0xdcfa764f
0,   39028608,   39028608,     1152,     2304, 0x60e09242
0,   39055104,   39055104,     1152,     2304, 0x2aaa7f75
0,   39081600,   39081600,     1152,     2304, 0x5bc7954b
0,   39108096,   39108096,     1152,     2304, 0x9c168222
0,   39134592,   39134592,     1152,     2304, 0xe15b8af7
0,   39161088,   39161088,     1152,     2304, 0x2a4882dd
0,   39187584,   39187584,     1152,     2304, 0x4dd67986
0,   39214080,   39214080,     1152,     2304, 0xc1b68236
0,   39240576,   39240576,     1152,     2304, 0xaf1c8e92
0,   39267072,   39267072,     1152,     2304, 0x821170ea
0,   39293568,   39293568,     1152,     2304, 0xdbd8838a
0,   39320064,   39320064,     1152,     2304, 0x855e72c8
0,   39346560,   39346560,     1152,     2304, 0xb44e806b
0,   39373056,   39373056,     1152,     2304, 0x86727d7a
0,   39399552,   39399552,     1152,     2304, 0xbcf07c9b
0,   39426048,   39426048,     1152,     2304, 0xec8f7c43
0,   39452544,   39452544,     1152,     2304, 0x924a86a7
0,   39479040,   39479040,     1152,     2304, 0x4e41757d
0,   39505536,   39505536,     1152,     2304, 0x75d476bc
0,   39532032,   39532032,     1152,     2304, 0xdcf07ebb
0,   39558528,   39558528,     1152,     2304, 0x0a2d709a
0,   39585024,   39585024,     1152,     2304, 0xe6a08208
0,   39611520,   39611520,     1152,     2304, 0x49ad7327
0,   39638016,   39638016,     1152,     2304, 0x32d482d7
0,   39664512,   39664512,     1152,     2304, 0x8f387a8e
0,   39691008,   39691008,     1152,     2304, 0x8ddc7755
0,   39717504,   39717504,     1152,     2304, 0x3a926d30
0,   39744000,   39744000,     1152,     2304, 0xf32e7e5b
0,   39770496,   39770496,     1152,     2304, 0xeb8570ec
0,   39796992,   39796992,     1152,     2304, 0xf7be8e74
0,   39823488,   39823488,     1152,     2304, 0x404a7c66
0,   39849984,   39849984,     1152,     2304, 0x95256e67
0,   39876480,   39876480,     1152,     2304, 0xb1de8c9e
0,   39902976,   39902976,     1152,     2304, 0x40f97545
0,   39929472,   39929472,     1152,     2304, 0x031785fa
0,   39955968,   39955968,     1152,     2304, 0x944a7fcd
0,   39982464,   39982464,     1152,     2304, 0x639a838e
0,   40008960,   40008960,     1152,     2304, 0xd5eb6f79
0,   40035456,   40035456,     1152,     2304, 0x646a7621
0,   40061952,   40061952,     1152,     2304, 0xefe28205
0,   40088448,   40088448,     1152,     2304, 0x874883da
0,   40114944,   40114944,     1152,     2304, 0xb9887e46
0,   40141440,   40141440,     1152,     2304, 0xb1649636
0,   40167936,   40167936,     1152,     2304, 0x8af07a7b
0,   40194432,   40194432,     1152,     2304, 0xf2e17790
0,   40220928,   40220928,     1152,     2304, 0xc0fe6a24
0,   40247424,   40247424,     1152,     2304, 0x9a8e7e3d
0,   40273920,   40273920,     1152,     2304, 0x74c17d34
0,   40300416,   40300416,     1152,     2304, 0x342a7902
0,   40326912,   40326912,     1152,     2304, 0xfaf07a27
0,   40353408,   40353408,     1152,     2304, 0xa0d0830b
0,   40379904,   40379904,     1152,     2304, 0x018a822c
0,   40406400,   40406400,     1152,     2304, 0xa2378478
0,   40432896,   40432896,     1152,     2304, 0xa14e8ef8
0,   40459392,   40459392,     1152,     2304, 0x036877e0
0,   40485888,   40485888,     1152,     2304, 0xb7ec7742
0,   40512384,   40512384,     1152,     2304, 0xf5076be2
0,   40538880,   40538880,     1152,     2304, 0x39738530
0,   40565376,   40565376,     1152,     2304, 0x55e65e7b
